<?xml version="1.0" encoding="UTF-8" standalone="no"?>
<!DOCTYPE svg PUBLIC "-//W3C//DTD SVG 1.1//EN" "http://www.w3.org/Graphics/SVG/1.1/DTD/svg11.dtd">
<svg version="1.1" xmlns="http://www.w3.org/2000/svg" xmlns:xlink="http://www.w3.org/1999/xlink" preserveAspectRatio="xMidYMid meet" viewBox="0 0 640 640" width="512" height="512"><defs><path d="M623.54 295.72C623.54 184.32 533.23 94.01 421.83 94.01C330.17 94.01 252.81 155.14 228.25 238.86C207.11 225.94 182.25 218.49 155.66 218.49C78.63 218.49 16.19 280.94 16.19 357.96C16.19 434.99 78.63 497.44 155.66 497.44C173.4 497.44 262.13 497.44 421.83 497.44C556.3 437.23 623.54 369.99 623.54 295.72Z" id="fhF6wK6HP"></path><path d="M222.14 283.01C239.03 283.26 255.19 286.51 270.12 292.25C282.43 296.98 296.24 291.09 301.55 279.03C332.79 208.06 403.72 158.51 486.24 158.51C525.49 158.51 562.13 169.74 593.11 189.13C557.49 132.02 494.09 94.01 421.83 94.01C330.17 94.01 252.81 155.14 228.26 238.86C206.66 225.66 181.19 218.18 153.95 218.5C79.09 219.4 17.74 280.22 16.22 355.07C15.08 411.41 47.36 460.34 94.58 483.38C85.24 464.18 80.17 442.51 80.63 419.62C82.16 343.27 145.79 281.9 222.14 283.01Z" id="aJO3m6ExL"></path><path d="M428.98 374.41C426.77 376.28 423.85 377.02 421.01 376.51C416.4 375.67 411.66 375.23 406.82 375.23C369.35 375.23 337.94 401.17 329.58 436.08C328.34 441.28 323.02 444.29 317.84 442.95C312.71 441.63 307.27 441.03 301.67 441.28C273.53 442.52 250.7 465.49 249.62 493.64C248.42 524.75 273.29 550.35 304.14 550.35C323.07 550.35 474.47 550.35 493.39 550.35C550.29 550.35 596.06 502.72 593.02 445.15C590.3 393.89 548.38 352.73 497.08 350.88C471.09 349.94 447.23 358.96 428.98 374.41Z" id="bkPngAxAP"></path><path d="M582.26 162.73C578.14 165.89 577.36 171.8 580.53 175.93C607.12 210.55 621.17 251.98 621.17 295.72C621.17 324.2 615.21 351.68 603.47 377.4C601.31 382.13 603.4 387.71 608.13 389.87C609.39 390.45 610.72 390.72 612.03 390.72C615.6 390.72 619.02 388.68 620.6 385.22C633.47 357.03 640 326.92 640 295.72C640 247.79 624.6 202.4 595.46 164.46C592.29 160.34 586.39 159.56 582.26 162.73Z" id="a1FPeaVvHp"></path><path d="M212.13 492.61C206.12 492.61 158.06 492.61 152.05 492.61C78.59 492.61 18.82 432.84 18.82 359.38C18.82 328.61 29.02 299.71 48.31 275.8C51.57 271.75 50.94 265.83 46.89 262.56C42.84 259.3 36.92 259.93 33.65 263.98C11.95 290.88 0 324.76 0 359.38C0 443.23 68.21 511.44 152.05 511.44C158.06 511.44 206.13 511.44 212.13 511.44C217.33 511.44 221.55 507.22 221.55 502.02C221.55 496.83 217.33 492.61 212.13 492.61Z" id="c3Rw12ywN"></path><path d="M75.72 250.18C98.16 234.46 124.56 226.15 152.05 226.15C176.59 226.15 200.57 232.87 221.39 245.6C221.42 245.61 221.49 245.65 221.5 245.65C246.55 260.99 266.11 284.5 276.56 311.84C277.99 315.59 281.56 317.9 285.35 317.9C286.47 317.9 287.6 317.7 288.71 317.27C293.57 315.42 296 309.98 294.14 305.12C283.08 276.17 263.08 251.01 237.43 233.56C249.87 196.24 273.75 162.82 305.25 138.87C339.71 112.68 380.87 98.83 424.28 98.83C472.22 98.83 518.41 116.27 554.36 147.93C558.26 151.37 564.21 150.99 567.65 147.09C571.08 143.19 570.71 137.24 566.8 133.81C527.42 99.11 476.8 80 424.28 80C376.72 80 331.62 95.18 293.86 123.89C260.44 149.29 234.84 184.43 220.88 223.76C199.65 212.98 176.08 207.32 152.05 207.32C120.67 207.32 90.54 216.81 64.91 234.76C60.66 237.74 59.62 243.61 62.6 247.87C64.44 250.49 67.36 251.89 70.32 251.89C72.19 251.89 74.07 251.33 75.72 250.18Z" id="b4CInQWH8"></path><path d="M498.25 341.52C493.04 341.29 488.66 345.32 488.43 350.51C488.21 355.7 492.23 360.1 497.43 360.33C519.74 361.3 540.87 370.58 556.9 386.44C572.95 402.31 582.44 423.34 583.62 445.65C584.95 470.75 576.19 494.58 558.96 512.74C541.72 530.92 518.44 540.93 493.39 540.93C474.47 540.93 323.07 540.93 304.14 540.93C291.75 540.93 280.2 536.02 271.6 527.09C263.02 518.16 258.55 506.41 259.03 494C259.92 470.73 278.83 451.7 302.09 450.68C306.64 450.48 311.14 450.94 315.49 452.07C320.45 453.35 325.81 452.58 330.17 449.96C334.52 447.35 337.56 443.2 338.74 438.27C346.3 406.69 374.3 384.64 406.82 384.64C410.99 384.64 415.2 385.02 419.32 385.77C424.98 386.79 430.72 385.28 435.07 381.6C442.94 374.93 451.85 369.69 461.54 366.03C466.41 364.2 468.86 358.76 467.02 353.9C465.19 349.04 459.76 346.58 454.89 348.42C443.18 352.84 432.42 359.17 422.9 367.23C422.88 367.24 422.81 367.26 422.69 367.24C417.46 366.29 412.12 365.81 406.82 365.81C365.55 365.81 330.02 393.8 320.47 433.82C320.47 433.82 320.38 433.89 320.2 433.84C314.05 432.25 307.67 431.59 301.25 431.87C268.29 433.32 241.48 460.29 240.21 493.27C239.54 510.85 245.87 527.49 258.04 540.14C270.21 552.79 286.59 559.76 304.14 559.76C323.07 559.76 474.47 559.76 493.39 559.76C523.65 559.76 551.79 547.66 572.62 525.7C593.44 503.75 604.02 474.97 602.42 444.65C600.99 417.66 589.53 392.23 570.14 373.05C550.78 353.9 525.24 342.7 498.25 341.52Z" id="e55N7TAdq6"></path></defs><g><g><g><use xlink:href="#fhF6wK6HP" opacity="1" fill="#f7f2f0" fill-opacity="1"></use><g><use xlink:href="#fhF6wK6HP" opacity="1" fill-opacity="0" stroke="#000000" stroke-width="1" stroke-opacity="0"></use></g></g><g><use xlink:href="#aJO3m6ExL" opacity="1" fill="#f1e9e6" fill-opacity="1"></use><g><use xlink:href="#aJO3m6ExL" opacity="1" fill-opacity="0" stroke="#000000" stroke-width="1" stroke-opacity="0"></use></g></g><g><use xlink:href="#bkPngAxAP" opacity="1" fill="#f1e9e6" fill-opacity="1"></use><g><use xlink:href="#bkPngAxAP" opacity="1" fill-opacity="0" stroke="#000000" stroke-width="1" stroke-opacity="0"></use></g></g><g><use xlink:href="#a1FPeaVvHp" opacity="1" fill="#000000" fill-opacity="1"></use><g><use xlink:href="#a1FPeaVvHp" opacity="1" fill-opacity="0" stroke="#000000" stroke-width="1" stroke-opacity="0"></use></g></g><g><use xlink:href="#c3Rw12ywN" opacity="1" fill="#000000" fill-opacity="1"></use><g><use xlink:href="#c3Rw12ywN" opacity="1" fill-opacity="0" stroke="#000000" stroke-width="1" stroke-opacity="0"></use></g></g><g><use xlink:href="#b4CInQWH8" opacity="1" fill="#000000" fill-opacity="1"></use><g><use xlink:href="#b4CInQWH8" opacity="1" fill-opacity="0" stroke="#000000" stroke-width="1" stroke-opacity="0"></use></g></g><g><use xlink:href="#e55N7TAdq6" opacity="1" fill="#000000" fill-opacity="1"></use><g><use xlink:href="#e55N7TAdq6" opacity="1" fill-opacity="0" stroke="#000000" stroke-width="1" stroke-opacity="0"></use></g></g></g></g></svg>