<svg id="Capa_1" enable-background="new 0 0 511.411 511.411" height="512" viewBox="0 0 511.411 511.411" width="512" xmlns="http://www.w3.org/2000/svg"><g><g><path d="m255.675 503.911c-65.351 0-126.726-25.971-172.819-73.13-45.776-46.834-70.986-109.017-70.986-175.093s25.21-128.259 70.986-175.093c46.093-47.158 107.468-73.129 172.819-73.129s126.726 25.971 172.819 73.129c45.776 46.834 70.986 109.016 70.986 175.093s-25.21 128.26-70.986 175.093c-46.093 47.159-107.468 73.13-172.819 73.13z" fill="#fdb441"/><ellipse cx="252.913" cy="251.371" fill="#fedf30" rx="195.235" ry="200.552"/><path d="m129.796 251.371c0-98.105 68.614-179.757 159.21-197.136-11.688-2.242-23.772-3.416-36.093-3.416-107.825 0-195.235 89.79-195.235 200.552s87.409 200.552 195.235 200.552c12.321 0 24.414-1.18 36.102-3.422-90.596-17.38-159.219-99.025-159.219-197.13z" fill="#fed402"/><g fill="#eaf9fa"><path d="m484.35 393.945h-49.69c-10.789 0-19.536-8.747-19.536-19.536 0-10.789 8.747-19.536 19.536-19.536h20.023c10.582 0 19.594-8.229 19.97-18.804.395-11.102-8.488-20.226-19.502-20.226h-93.882c-10.778 0-19.515-8.737-19.515-19.515 0-10.778 8.737-19.515 19.515-19.515h100.509c10.582 0 19.594-8.229 19.97-18.804.395-11.102-8.488-20.226-19.502-20.226h-280.455c-10.582 0-19.594 8.228-19.97 18.803-.395 11.102 8.488 20.227 19.502 20.227h72.997c10.778 0 19.515 8.737 19.515 19.515 0 10.778-8.737 19.515-19.515 19.515h-16.456c-10.582 0-19.594 8.229-19.97 18.804-.395 11.102 8.488 20.226 19.502 20.226h110.674c10.789 0 19.536 8.747 19.536 19.536 0 10.789-8.747 19.536-19.536 19.536h-72.635c-10.778 0-19.515 8.737-19.515 19.515 0 10.778 8.737 19.515 19.515 19.515h208.915c10.778 0 19.515-8.737 19.515-19.515-.001-10.777-8.738-19.515-19.515-19.515z"/><path d="m382.456 198.753h101.785c10.778 0 19.515-8.737 19.515-19.515 0-10.778-8.737-19.515-19.515-19.515h-101.785c-10.778 0-19.515 8.737-19.515 19.515 0 10.778 8.737 19.515 19.515 19.515z"/><path d="m248.212 198.753h55.818c10.778 0 19.515-8.737 19.515-19.515 0-10.778-8.737-19.515-19.515-19.515h-55.818c-10.778 0-19.515 8.737-19.515 19.515 0 10.778 8.737 19.515 19.515 19.515z"/></g></g><g><path d="m484.35 386.445h-49.69c-6.636 0-12.036-5.399-12.036-12.036s5.399-12.035 12.036-12.035h20.023c14.882 0 26.946-11.438 27.465-26.038.263-7.405-2.421-14.414-7.558-19.736-5.138-5.324-12.042-8.257-19.44-8.257h-93.882c-6.625 0-12.015-5.39-12.015-12.015s5.39-12.015 12.015-12.015h100.509c14.882 0 26.947-11.438 27.465-26.037.263-7.405-2.42-14.415-7.557-19.737-5.138-5.324-12.042-8.256-19.44-8.256h-228.853c-4.142 0-7.5 3.357-7.5 7.5s3.358 7.5 7.5 7.5h228.854c3.29 0 6.361 1.305 8.646 3.673 2.284 2.366 3.478 5.487 3.36 8.787-.227 6.38-5.823 11.57-12.475 11.57h-100.508c-14.896 0-27.015 12.119-27.015 27.015s12.119 27.015 27.015 27.015h93.882c3.29 0 6.361 1.305 8.647 3.673 2.284 2.367 3.478 5.487 3.36 8.787-.227 6.381-5.823 11.571-12.475 11.571h-20.023c-14.908 0-27.036 12.128-27.036 27.035 0 14.908 12.128 27.036 27.036 27.036h49.689c6.625 0 12.015 5.391 12.015 12.016s-5.39 12.015-12.015 12.015h-208.914c-6.625 0-12.015-5.391-12.015-12.016s5.39-12.015 12.015-12.015h72.635c14.908 0 27.036-12.128 27.036-27.036 0-14.907-12.128-27.035-27.036-27.035h-110.674c-3.29 0-6.361-1.305-8.647-3.673-2.284-2.367-3.478-5.487-3.36-8.788.227-6.38 5.823-11.57 12.475-11.57h16.457c14.896 0 27.015-12.119 27.015-27.015s-12.119-27.015-27.015-27.015h-72.998c-3.29 0-6.361-1.305-8.646-3.673-2.285-2.367-3.478-5.488-3.361-8.788.227-6.38 5.823-11.569 12.475-11.569h19.638c4.142 0 7.5-3.357 7.5-7.5s-3.358-7.5-7.5-7.5h-19.638c-14.882 0-26.946 11.437-27.465 26.036-.263 7.405 2.421 14.415 7.558 19.738 5.138 5.323 12.042 8.256 19.44 8.256h72.998c6.625 0 12.015 5.39 12.015 12.015s-5.39 12.015-12.015 12.015h-16.457c-14.634 0-26.955 11.681-27.465 26.038-.263 7.405 2.421 14.414 7.558 19.736 5.138 5.324 12.042 8.257 19.44 8.257h110.672c6.637 0 12.036 5.398 12.036 12.035s-5.399 12.036-12.036 12.036h-72.635c-14.896 0-27.015 12.119-27.015 27.016 0 14.896 12.119 27.015 27.015 27.015h208.915c14.896 0 27.015-12.119 27.015-27.016-.001-14.896-12.119-27.015-27.015-27.015z"/><path d="m355.441 179.238c0 14.896 12.119 27.015 27.015 27.015h101.786c14.896 0 27.015-12.119 27.015-27.015s-12.119-27.016-27.015-27.016h-101.786c-14.896.001-27.015 12.12-27.015 27.016zm140.816 0c0 6.625-5.39 12.015-12.015 12.015h-101.786c-6.625 0-12.015-5.39-12.015-12.015s5.39-12.016 12.015-12.016h101.786c6.625.001 12.015 5.391 12.015 12.016z"/><path d="m248.212 152.223c-14.896 0-27.015 12.119-27.015 27.016 0 14.896 12.119 27.015 27.015 27.015h55.818c14.896 0 27.015-12.119 27.015-27.015s-12.119-27.016-27.015-27.016zm67.833 27.015c0 6.625-5.39 12.015-12.015 12.015h-55.818c-6.625 0-12.015-5.39-12.015-12.015s5.39-12.016 12.015-12.016h55.818c6.625.001 12.015 5.391 12.015 12.016z"/><path d="m82.921 147.069c-20.46 32.487-31.275 70.047-31.275 108.619 0 39.096 11.096 77.095 32.088 109.89 1.432 2.237 3.852 3.458 6.324 3.458 1.384 0 2.784-.383 4.036-1.185 3.489-2.232 4.506-6.871 2.273-10.359-19.444-30.377-29.722-65.58-29.722-101.804 0-35.74 10.017-70.535 28.968-100.625 18.445-29.287 44.517-52.965 75.396-68.475 3.702-1.859 5.195-6.367 3.336-10.068-1.859-3.702-6.366-5.194-10.068-3.336-33.321 16.737-61.454 42.286-81.356 73.885z"/><path d="m104.565 381.591c-3.079 2.771-3.328 7.513-.557 10.592 33.105 36.779 78.263 60.271 127.155 66.148.304.037.606.055.904.055 3.743 0 6.979-2.797 7.437-6.605.495-4.113-2.438-7.848-6.551-8.342-45.287-5.444-87.121-27.211-117.797-61.291-2.77-3.079-7.512-3.328-10.591-.557z"/><path d="m195.086 60.739c-3.955 1.23-6.165 5.434-4.935 9.389 1.23 3.956 5.434 6.166 9.389 4.936 18.134-5.639 37.052-8.498 56.229-8.498 26.73 0 52.563 5.464 76.78 16.24 23.397 10.41 44.148 25.238 61.677 44.071 1.477 1.588 3.481 2.391 5.491 2.391 1.83 0 3.664-.665 5.108-2.01 3.032-2.822 3.202-7.568.38-10.6-18.913-20.32-41.306-36.321-66.559-47.558-26.149-11.636-54.033-17.535-82.878-17.535-20.687 0-41.104 3.087-60.682 9.174z"/><path d="m24.168 321.558c-1.131-3.985-5.277-6.299-9.263-5.167-3.985 1.131-6.298 5.278-5.167 9.263 6.77 23.851 16.996 46.576 30.396 67.547 1.431 2.24 3.853 3.463 6.327 3.463 1.382 0 2.781-.382 4.032-1.181 3.49-2.23 4.512-6.868 2.281-10.358-12.611-19.738-22.235-41.125-28.606-63.567z"/><path d="m198.961 21.726c37.081-8.971 76.536-8.971 113.617 0 .593.143 1.186.212 1.77.212 3.382 0 6.453-2.305 7.283-5.738.974-4.026-1.5-8.079-5.526-9.054-39.389-9.527-81.283-9.527-120.672 0-4.026.975-6.5 5.027-5.526 9.054s5.025 6.492 9.054 5.526z"/><path d="m375.685 464.432c-36.326 20.921-77.792 31.979-119.916 31.979-65.582 0-126.889-25.916-172.625-72.975-2.888-2.971-7.636-3.038-10.605-.15-2.971 2.887-3.038 7.635-.151 10.605 23.582 24.262 51.216 43.333 82.137 56.684 32.021 13.826 66.085 20.836 101.245 20.836 44.748 0 88.802-11.751 127.402-33.981 3.589-2.067 4.823-6.652 2.756-10.242s-6.655-4.826-10.243-2.756z"/><path d="m15.699 273.417c-.433-5.942-.652-11.906-.652-17.729 0-41.436 10.701-82.291 30.947-118.149 19.634-34.774 47.894-64.412 81.724-85.709 3.505-2.206 4.558-6.837 2.352-10.342-2.207-3.505-6.835-4.559-10.343-2.352-35.929 22.618-65.941 54.094-86.795 91.028-21.514 38.104-32.885 81.51-32.885 125.524 0 6.184.233 12.515.692 18.818.287 3.945 3.578 6.955 7.472 6.955.183 0 .367-.006.552-.02 4.132-.299 7.237-3.892 6.936-8.024z"/><path d="m383.821 51.83c29.8 18.761 55.614 44.346 74.652 73.99 1.433 2.231 3.85 3.448 6.317 3.448 1.388 0 2.792-.385 4.046-1.19 3.485-2.238 4.496-6.878 2.258-10.363-20.218-31.482-47.633-58.654-79.282-78.578-3.505-2.206-8.135-1.154-10.343 2.351-2.206 3.505-1.153 8.136 2.352 10.342z"/></g></g></svg>