<svg id="Capa_1" enable-background="new 0 0 510.933 510.933" height="512" viewBox="0 0 510.933 510.933" width="512" xmlns="http://www.w3.org/2000/svg"><g><g><g><g id="XMLID_400_"><g><path d="m338.929 91.918c90.297 0 163.5 73.435 163.463 164.023-.036 90.78-74.521 163.889-165.028 163.889h-212.916c-62.469 0-114.037-50.316-114.246-112.973-.209-62.794 50.473-113.758 113.019-113.758 17.098 0 33.314 3.811 47.842 10.631 5.841 2.742 12.725-.026 15.015-6.074 23.41-61.814 83.009-105.738 152.851-105.738z" fill="#f9f3f1"/></g></g></g><path d="m61.728 341.76c-.209-62.794 50.473-113.758 113.019-113.758 17.098 0 33.314 3.811 47.842 10.631 5.841 2.742 12.725-.026 15.015-6.074 23.409-61.814 83.008-105.738 152.85-105.738 22.706 0 44.329 4.647 63.98 13.039-29.575-29.623-70.408-47.942-115.506-47.942-69.842 0-129.441 43.924-152.85 105.738-2.29 6.047-9.174 8.816-15.015 6.074-14.528-6.82-30.744-10.631-47.842-10.631-62.546 0-113.229 50.965-113.019 113.758.167 50.031 33.08 92.19 78.141 107.151-16.504-19.548-26.523-44.704-26.615-72.248z" fill="#f3eae6"/><g fill="#dcf5f8"><path d="m469.026 380.657h-79.689c-10.789 0-19.536-8.747-19.536-19.536 0-10.789 8.747-19.536 19.536-19.536h89.023c10.582 0 19.594-8.229 19.97-18.804.395-11.102-8.488-20.226-19.502-20.226h-117.883c-10.778 0-19.515-8.737-19.515-19.515 0-10.778 8.737-19.515 19.515-19.515h78.509c10.582 0 19.594-8.229 19.97-18.804.395-11.102-8.488-20.226-19.502-20.226h-202.455c-10.582 0-19.594 8.228-19.97 18.803-.395 11.102 8.488 20.227 19.502 20.227h16.997c10.778 0 19.515 8.737 19.515 19.515 0 10.778-8.737 19.515-19.515 19.515h-84.456c-10.582 0-19.594 8.229-19.97 18.804-.395 11.102 8.488 20.226 19.502 20.226h133.674c10.789 0 19.536 8.747 19.536 19.536 0 10.789-8.747 19.536-19.536 19.536h-27.635c-10.778 0-19.515 8.737-19.515 19.515 0 10.778 8.737 19.515 19.515 19.515h193.915c10.778 0 19.515-8.737 19.515-19.515 0-10.778-8.737-19.515-19.515-19.515z"/><path d="m382.133 183.465h101.785c10.778 0 19.515-8.737 19.515-19.515 0-10.778-8.737-19.515-19.515-19.515h-101.785c-10.778 0-19.515 8.737-19.515 19.515-.001 10.777 8.737 19.515 19.515 19.515z"/><path d="m290.032 183.465h13.674c10.778 0 19.515-8.737 19.515-19.515 0-10.778-8.737-19.515-19.515-19.515h-13.674c-10.778 0-19.515 8.737-19.515 19.515 0 10.777 8.737 19.515 19.515 19.515z"/></g></g><g><path d="m360.946 271.025h78.509c14.883 0 26.947-11.438 27.465-26.037.264-7.405-2.421-14.415-7.558-19.737-5.138-5.324-12.042-8.256-19.439-8.256h-129.879c-4.143 0-7.5 3.357-7.5 7.5s3.357 7.5 7.5 7.5h129.878c3.29 0 6.36 1.305 8.646 3.673 2.284 2.366 3.478 5.487 3.36 8.788-.227 6.379-5.822 11.569-12.475 11.569h-78.509c-14.896 0-27.016 12.119-27.016 27.015s12.119 27.015 27.016 27.015h61.525c4.143 0 7.5-3.357 7.5-7.5s-3.357-7.5-7.5-7.5h-61.525c-6.625 0-12.016-5.39-12.016-12.015s5.393-12.015 12.018-12.015z"/><path d="m478.828 295.054h-24.394c-4.143 0-7.5 3.357-7.5 7.5s3.357 7.5 7.5 7.5h24.394c3.29 0 6.36 1.305 8.646 3.673 2.284 2.367 3.478 5.487 3.36 8.787-.227 6.381-5.823 11.571-12.475 11.571h-89.023c-14.908 0-27.036 12.128-27.036 27.035 0 14.908 12.128 27.036 27.036 27.036h79.689c6.625 0 12.015 5.391 12.015 12.016s-5.39 12.015-12.015 12.015h-193.914c-6.625 0-12.015-5.391-12.015-12.016s5.391-12.015 12.016-12.015h27.635c14.908 0 27.036-12.128 27.036-27.036 0-14.907-12.128-27.035-27.036-27.035h-133.674c-3.29 0-6.361-1.305-8.647-3.673-2.284-2.367-3.478-5.487-3.36-8.787.227-6.381 5.823-11.571 12.475-11.571h84.456c14.896 0 27.015-12.119 27.015-27.015s-12.119-27.015-27.015-27.015h-16.998c-3.29 0-6.361-1.305-8.646-3.673-2.285-2.367-3.478-5.488-3.361-8.788.227-6.379 5.824-11.569 12.475-11.569h40.616c4.143 0 7.5-3.357 7.5-7.5s-3.357-7.5-7.5-7.5h-40.616c-14.881 0-26.946 11.437-27.465 26.036-.263 7.405 2.421 14.415 7.558 19.738 5.138 5.323 12.042 8.256 19.44 8.256h16.998c6.625 0 12.015 5.39 12.015 12.015s-5.39 12.015-12.015 12.015h-84.456c-14.882 0-26.946 11.438-27.465 26.038-.263 7.405 2.421 14.414 7.558 19.736 5.138 5.324 12.042 8.257 19.44 8.257h133.674c6.637 0 12.036 5.398 12.036 12.035s-5.399 12.036-12.036 12.036h-27.635c-14.896 0-27.016 12.119-27.016 27.016 0 14.896 12.119 27.015 27.015 27.015h193.915c14.896 0 27.015-12.119 27.015-27.016 0-14.896-12.119-27.015-27.015-27.015h-79.689c-6.637 0-12.036-5.399-12.036-12.036s5.399-12.035 12.036-12.035h89.023c14.882 0 26.946-11.438 27.465-26.038.264-7.405-2.421-14.414-7.558-19.737-5.14-5.323-12.044-8.256-19.441-8.256z"/><path d="m355.118 163.95c0 14.896 12.119 27.015 27.015 27.015h101.785c14.896 0 27.016-12.119 27.016-27.015s-12.119-27.016-27.016-27.016h-101.786c-14.895 0-27.014 12.119-27.014 27.016zm140.815 0c0 6.625-5.391 12.015-12.016 12.015h-101.785c-6.625 0-12.015-5.39-12.015-12.015s5.39-12.016 12.015-12.016h101.785c6.625 0 12.016 5.391 12.016 12.016z"/><path d="m330.721 163.95c0-14.896-12.119-27.016-27.015-27.016h-13.674c-14.896 0-27.016 12.119-27.016 27.016 0 14.896 12.119 27.015 27.016 27.015h13.674c14.896 0 27.015-12.12 27.015-27.015zm-27.014 12.015h-13.674c-6.625 0-12.016-5.39-12.016-12.015s5.391-12.016 12.016-12.016h13.674c6.625 0 12.015 5.391 12.015 12.016s-5.39 12.015-12.015 12.015z"/><path d="m494.54 204.6c-3.994 1.097-6.343 5.225-5.246 9.219 3.715 13.526 5.599 27.539 5.599 41.647 0 7.065-.485 14.229-1.443 21.291-.557 4.104 2.319 7.883 6.424 8.439.342.047.682.069 1.018.069 3.693 0 6.912-2.73 7.422-6.493 1.049-7.728 1.58-15.569 1.58-23.307 0-15.45-2.063-30.799-6.134-45.62-1.099-3.992-5.221-6.34-9.22-5.245z"/><path d="m229.676 412.33h-108.531c-58.529 0-106.145-47.616-106.145-106.146 0-28.821 11.363-55.791 31.995-75.94 2.963-2.894 3.02-7.642.125-10.605-2.895-2.965-7.643-3.02-10.606-.126-23.546 22.996-36.514 53.776-36.514 86.671 0 66.8 54.345 121.146 121.145 121.146h108.531c4.142 0 7.5-3.357 7.5-7.5s-3.358-7.5-7.5-7.5z"/><path d="m71.137 212.54c15.28-8.178 32.572-12.501 50.008-12.501 19.546 0 38.649 5.357 55.244 15.494.019.012.074.041.082.046 2.466 1.51 4.904 3.144 7.246 4.854 1.335.976 2.884 1.446 4.42 1.446 2.312 0 4.592-1.066 6.061-3.075 2.444-3.345 1.714-8.037-1.629-10.48-1.115-.815-2.258-1.604-3.406-2.384 9.911-29.727 28.942-56.353 54.036-75.431 27.455-20.873 60.246-31.905 94.831-31.905 28.447 0 56.313 7.698 80.583 22.262 3.553 2.133 8.158.979 10.29-2.571 2.132-3.552.98-8.159-2.571-10.29-26.602-15.963-57.136-24.4-88.302-24.4-37.892 0-73.822 12.091-103.909 34.965-26.619 20.237-47.016 48.234-58.141 79.57-16.917-8.594-35.692-13.1-54.834-13.1-19.896 0-39.637 4.937-57.086 14.276-3.652 1.954-5.028 6.5-3.073 10.151 1.954 3.652 6.499 5.031 10.15 3.073z"/></g></g></svg>