<svg id="Capa_1" enable-background="new 0 0 512.855 512.855" height="512" viewBox="0 0 512.855 512.855" width="512" xmlns="http://www.w3.org/2000/svg"><g><g><path d="m208.823 9.027-65.331 141.26c-.653 1.412.378 3.026 1.935 3.026h105.159c1.526 0 2.557 1.556 1.963 2.961l-63.266 149.636c-.594 1.405.437 2.961 1.963 2.961h47.204c1.383 0 2.4 1.297 2.07 2.64l-46.963 191.182c-.556 2.262 2.4 3.648 3.784 1.775l220.024-297.757c1.04-1.407.035-3.398-1.714-3.398h-68.161c-1.606 0-2.635-1.709-1.884-3.129l100.39-189.555c.752-1.421-.279-3.131-1.886-3.129l-233.355.29c-.829.001-1.583.483-1.932 1.237z" fill="#fee97d"/><path d="m297.004 294.594c1.575-6.411-3.279-12.601-9.881-12.601h-24.217c-7.566 0-12.682-7.717-9.735-14.686l52.434-124.016c3.382-7.999-2.49-16.857-11.174-16.857h-80.377c-6.082 0-10.113-6.306-7.56-11.826l49.427-106.874-45.166.056c-.83.001-1.584.483-1.932 1.236l-65.331 141.261c-.653 1.412.378 3.026 1.934 3.026h105.159c1.526 0 2.557 1.556 1.963 2.961l-63.266 149.636c-.594 1.405.437 2.961 1.963 2.961h47.204c1.383 0 2.4 1.297 2.07 2.64l-46.963 191.182c-.556 2.262 2.4 3.648 3.784 1.775l72.064-97.523z" fill="#fee45a"/><g fill="#fee97d"><path d="m124.75 274.869-83.227 137.005c-.575.946.106 2.156 1.213 2.156h32.433c.93 0 1.609.88 1.373 1.779l-22.647 86.381c-.406 1.548 1.662 2.479 2.552 1.15l85.368-127.502c.631-.943-.044-2.209-1.179-2.209h-33.003c-.907 0-1.581-.838-1.386-1.724l21.103-95.994c.343-1.567-1.768-2.412-2.6-1.042z"/><path d="m454.23 274.869-83.227 137.005c-.575.946.106 2.156 1.213 2.156h32.433c.93 0 1.609.88 1.373 1.779l-22.647 86.381c-.406 1.548 1.662 2.479 2.552 1.15l85.368-127.502c.631-.943-.044-2.209-1.179-2.209h-33.003c-.907 0-1.581-.838-1.386-1.724l21.103-95.994c.343-1.567-1.768-2.412-2.6-1.042z"/></g></g><g><path d="m275.72 15.209h.009l159.459-.198-32.457 61.285c-1.938 3.66-.542 8.199 3.118 10.138 1.119.593 2.32.874 3.504.874 2.688 0 5.288-1.45 6.634-3.992l36.636-69.177c1.597-3.016 1.498-6.561-.265-9.482-1.758-2.918-4.839-4.657-8.24-4.657-.006 0-.012 0-.018 0l-168.39.209c-4.142.005-7.496 3.367-7.491 7.51.006 4.138 3.363 7.49 7.501 7.49z"/><path d="m424.251 201.108c-1.647-3.266-4.942-5.294-8.6-5.294h-59.244l44.615-84.243c1.938-3.66.542-8.199-3.118-10.138-3.661-1.939-8.199-.544-10.138 3.118l-48.789 92.124c-1.595 3.012-1.498 6.554.26 9.475s4.843 4.664 8.251 4.664h57.519l-197.774 267.65 40.571-165.162c.71-2.894.064-5.897-1.774-8.241s-4.6-3.688-7.579-3.688h-39.105l60.111-142.177c1.261-2.982.946-6.373-.843-9.072-1.789-2.698-4.79-4.31-8.028-4.31h-96.762l60.367-130.527 29.575-.037c4.142-.005 7.496-3.367 7.491-7.51-.005-4.139-3.362-7.49-7.5-7.49-.003 0-.006 0-.009 0l-33.002.04c-3.736.005-7.163 2.198-8.73 5.588l-65.331 141.262c-1.386 2.998-1.151 6.448.627 9.23s4.813 4.443 8.115 4.443h97.06l-60.111 142.175c-1.262 2.981-.947 6.373.842 9.072 1.789 2.7 4.79 4.312 8.028 4.312h40.358l-45.33 184.533c-1.109 4.513 1.055 9.044 5.263 11.018 1.342.63 2.751.933 4.138.933 2.96 0 5.818-1.384 7.698-3.929l220.024-297.757c2.174-2.941 2.501-6.796.854-10.062z"/><path d="m140.635 366.129h-25.441l19.48-88.608c.94-4.278-1.329-8.565-5.395-10.194-4.068-1.628-8.667-.093-10.94 3.65v-.001l-83.226 137.004c-1.67 2.75-1.728 6.2-.15 9.004 1.578 2.805 4.556 4.546 7.773 4.546h24.552l-20.648 78.756c-1.11 4.229.978 8.601 4.964 10.396 1.191.536 2.441.794 3.675.794 2.895-.001 5.695-1.417 7.399-3.964l85.367-127.501c1.836-2.741 2.012-6.253.458-9.163-1.553-2.91-4.568-4.719-7.868-4.719zm-70.326 103.025 13.487-51.442c.707-2.694.136-5.505-1.566-7.711s-4.275-3.471-7.061-3.471h-21.624l58.626-96.508-13.251 60.275c-.582 2.652.061 5.388 1.762 7.503 1.702 2.116 4.235 3.329 6.95 3.329h21.614z"/><path d="m477.984 370.848c-1.554-2.911-4.569-4.72-7.869-4.72h-25.44l19.479-88.607c.94-4.277-1.328-8.564-5.394-10.193-4.065-1.629-8.666-.096-10.941 3.648l-83.226 137.004c-1.67 2.75-1.728 6.2-.15 9.004s4.556 4.546 7.773 4.546h24.552l-20.648 78.759c-1.108 4.227.979 8.598 4.963 10.393 1.191.536 2.442.794 3.676.794 2.894 0 5.694-1.416 7.4-3.963l48.747-72.807c2.305-3.442 1.383-8.101-2.059-10.405s-8.101-1.382-10.405 2.06l-28.652 42.794 13.488-51.446c.705-2.694.133-5.504-1.569-7.709-1.702-2.204-4.275-3.469-7.06-3.469h-21.624l58.626-96.508-13.251 60.274c-.582 2.652.06 5.387 1.762 7.502 1.701 2.116 4.234 3.329 6.95 3.329h21.614l-12.309 18.384c-2.305 3.442-1.383 8.101 2.059 10.405 3.443 2.304 8.101 1.382 10.405-2.06l18.644-27.846c1.837-2.74 2.012-6.252.459-9.163z"/></g></g></svg>