<svg id="Capa_1" enable-background="new 0 0 510.703 510.703" height="512" viewBox="0 0 510.703 510.703" width="512" xmlns="http://www.w3.org/2000/svg"><g><g><path d="m336.481 332.57c88.756 0 160.706-71.951 160.706-160.706 0-88.756-71.951-160.706-160.706-160.706-73.023 0-134.659 48.707-154.221 115.403-16.848-10.291-36.65-16.224-57.837-16.224-61.368 0-111.117 49.749-111.117 111.117s49.749 111.117 111.117 111.117h212.058z" fill="#f7f2f0"/><g fill="#f1e9e6"><path d="m64.646 270.573c1.218-60.822 51.914-109.717 112.742-108.832 13.457.196 26.335 2.785 38.227 7.36 9.804 3.771 20.807-.922 25.04-10.536 24.891-56.538 81.403-96.014 147.143-96.014 31.268 0 60.46 8.943 85.145 24.391-28.379-45.498-78.888-75.784-136.461-75.784-73.023 0-134.659 48.707-154.22 115.403-17.209-10.512-37.5-16.476-59.201-16.215-59.641.714-108.522 49.17-109.731 108.802-.91 44.884 24.812 83.868 62.43 102.227-7.437-15.298-11.479-32.567-11.114-50.802z"/><path d="m396.433 215.808c-20.707-.747-39.716 6.442-54.253 18.751-1.759 1.49-4.085 2.08-6.353 1.668-3.668-.666-7.444-1.021-11.305-1.021-29.852 0-54.875 20.673-61.535 48.484-.992 4.143-5.227 6.542-9.352 5.476-4.092-1.058-8.419-1.535-12.885-1.338-22.417.989-40.608 19.294-41.469 41.716-.952 24.789 18.862 45.183 43.439 45.183h150.778c45.331 0 81.799-37.947 79.371-83.808-2.162-40.842-35.564-73.638-76.436-75.111z"/></g></g><g><path d="m474.816 67.289c-2.523-3.285-7.231-3.902-10.517-1.381-3.285 2.523-3.903 7.231-1.381 10.517 21.183 27.585 32.379 60.588 32.379 95.438 0 22.692-4.743 44.586-14.097 65.073-1.721 3.768-.061 8.217 3.707 9.938 1.01.461 2.068.68 3.111.68 2.846 0 5.567-1.629 6.827-4.387 10.254-22.457 15.453-46.447 15.453-71.304 0-38.183-12.27-74.344-35.482-104.574z"/><path d="m176.915 336.227c0-4.142-3.358-7.5-7.5-7.5h-47.865c-58.528 0-106.145-47.616-106.145-106.145 0-24.513 8.123-47.539 23.49-66.588 2.601-3.224 2.096-7.946-1.128-10.546-3.224-2.601-7.945-2.097-10.546 1.128-17.293 21.435-26.815 48.427-26.815 76.006 0 66.8 54.345 121.145 121.145 121.145h47.865c4.141 0 7.499-3.358 7.499-7.5z"/><path d="m56.436 136.942c1.486 0 2.987-.44 4.297-1.357 17.882-12.527 38.913-19.148 60.818-19.148 19.547 0 38.65 5.357 55.244 15.493.02.012.075.042.082.047 19.963 12.218 35.542 30.945 43.865 52.73 1.142 2.989 3.988 4.825 7.007 4.825.89 0 1.795-.16 2.675-.496 3.87-1.478 5.808-5.813 4.329-9.683-8.811-23.063-24.75-43.107-45.186-57.015 9.911-29.727 28.942-56.355 54.037-75.433 27.454-20.872 60.246-31.905 94.83-31.905 38.192 0 74.997 13.894 103.636 39.123 3.108 2.737 7.847 2.438 10.585-.67s2.438-7.847-.67-10.585c-31.379-27.644-71.706-42.868-113.551-42.868-37.891 0-73.822 12.09-103.909 34.964-26.619 20.238-47.016 48.235-58.141 79.571-16.916-8.593-35.691-13.099-54.834-13.099-25 0-49.006 7.56-69.424 21.862-3.393 2.376-4.216 7.053-1.84 10.446 1.46 2.084 3.786 3.198 6.15 3.198z"/><path d="m454.644 233.475c-15.428-15.261-35.77-24.183-57.278-25.124-4.148-.178-7.64 3.027-7.82 7.165-.181 4.138 3.027 7.64 7.165 7.82 17.781.778 34.609 8.166 47.385 20.803 12.784 12.646 20.343 29.399 21.284 47.175 1.059 19.999-5.917 38.983-19.643 53.454-13.735 14.482-32.288 22.458-52.239 22.458h-150.778c-9.87 0-19.077-3.918-25.923-11.032-6.842-7.11-10.401-16.473-10.021-26.364.711-18.534 15.78-33.693 34.306-34.511 3.626-.161 7.217.212 10.677 1.107 3.956 1.024 8.221.41 11.698-1.68 3.462-2.082 5.886-5.388 6.825-9.31 6.025-25.159 28.33-42.73 54.241-42.73 3.326 0 6.679.303 9.964.9 4.506.817 9.077-.393 12.541-3.324 6.275-5.313 13.372-9.485 21.094-12.4 3.875-1.463 5.831-5.79 4.368-9.666-1.463-3.875-5.79-5.831-9.666-4.368-9.329 3.521-17.904 8.563-25.489 14.985-.017.015-.075.029-.167.014-4.168-.758-8.422-1.142-12.646-1.142-32.878 0-61.181 22.303-68.791 54.182-.003.002-.071.055-.219.016-4.902-1.268-9.979-1.794-15.093-1.57-26.262 1.159-47.625 22.647-48.633 48.921-.538 14.003 4.506 27.265 14.202 37.34 9.701 10.08 22.745 15.631 36.731 15.631h150.777c24.109 0 46.526-9.637 63.123-27.135 16.586-17.488 25.017-40.419 23.739-64.57-1.139-21.509-10.27-41.769-25.714-57.045z"/><path d="m222.37 406.998c-3.581-2.077-8.172-.858-10.25 2.725l-52.035 89.716c-2.078 3.583-.858 8.172 2.725 10.25 1.184.687 2.479 1.014 3.756 1.014 2.586 0 5.104-1.34 6.495-3.739l52.035-89.716c2.077-3.582.857-8.172-2.726-10.25z"/><path d="m274.405 406.998c-3.581-2.077-8.172-.858-10.25 2.725l-26.018 44.858c-2.078 3.583-.858 8.172 2.725 10.25 1.184.687 2.479 1.014 3.756 1.014 2.586 0 5.104-1.34 6.495-3.739l26.018-44.858c2.077-3.582.858-8.172-2.726-10.25z"/><path d="m326.44 406.998c-3.581-2.077-8.172-.858-10.25 2.725l-52.035 89.716c-2.078 3.583-.858 8.172 2.725 10.25 1.184.687 2.479 1.014 3.756 1.014 2.586 0 5.104-1.34 6.495-3.739l52.035-89.716c2.077-3.582.858-8.172-2.726-10.25z"/><path d="m381.2 417.249c2.078-3.583.858-8.172-2.725-10.25-3.582-2.077-8.172-.858-10.25 2.725l-13.928 24.014c-2.078 3.583-.858 8.172 2.725 10.25 1.184.687 2.479 1.014 3.756 1.014 2.586 0 5.104-1.34 6.495-3.739z"/><path d="m430.51 406.998c-3.582-2.077-8.171-.858-10.25 2.725l-52.035 89.716c-2.078 3.583-.858 8.172 2.725 10.25 1.184.687 2.479 1.014 3.756 1.014 2.586 0 5.104-1.34 6.495-3.739l52.035-89.716c2.077-3.582.858-8.172-2.726-10.25z"/></g></g></svg>