<svg id="Capa_1" enable-background="new 0 0 507.727 507.727" height="512" viewBox="0 0 507.727 507.727" width="512" xmlns="http://www.w3.org/2000/svg"><g><g><g><g id="XMLID_159_"><g><path d="m339.555 40.409c90.792 0 164.396 73.616 164.36 164.427-.036 91.003-74.929 164.293-165.933 164.293h-214.084c-62.812 0-114.662-50.44-114.872-113.251-.21-62.948 50.75-114.039 113.639-114.039 17.192 0 33.496 3.82 48.104 10.658 5.873 2.749 12.795-.027 15.097-6.089 23.538-61.967 83.464-105.999 153.689-105.999z" fill="#f9f3f1"/></g></g></g><path d="m60.834 290.866c-.211-62.948 50.75-114.039 113.639-114.039 17.192 0 33.496 3.82 48.104 10.657 5.873 2.749 12.795-.026 15.097-6.089 23.537-61.966 83.464-105.999 153.688-105.999 22.83 0 44.572 4.658 64.331 13.071-29.738-29.696-70.794-48.06-116.139-48.06-70.225 0-130.151 44.032-153.688 105.999-2.303 6.062-9.224 8.838-15.097 6.089-14.608-6.837-30.912-10.658-48.104-10.658-62.889 0-113.85 51.09-113.639 114.039.168 50.154 33.262 92.418 78.57 107.415-16.596-19.595-26.67-44.813-26.762-72.425z" fill="#f3eae6"/></g><g><path d="m149.662 361.632h-28.517c-58.528 0-106.145-47.617-106.145-106.145 0-33.04 14.994-63.623 41.138-83.909 3.272-2.539 3.867-7.25 1.328-10.523-2.538-3.272-7.249-3.867-10.523-1.328-29.833 23.148-46.943 58.051-46.943 95.76 0 66.8 54.345 121.146 121.145 121.146h28.517c4.142 0 7.5-3.358 7.5-7.5s-3.358-7.501-7.5-7.501z"/><path d="m244.478 79.208c26.75-19.213 58.35-29.369 91.385-29.369 35.811 0 69.53 11.755 97.513 33.995 1.38 1.097 3.026 1.629 4.662 1.629 2.208 0 4.396-.971 5.876-2.834 2.577-3.243 2.038-7.961-1.205-10.538-30.664-24.37-67.61-37.251-106.846-37.251-36.194 0-70.821 11.13-100.136 32.186-3.364 2.416-4.132 7.103-1.716 10.467 2.416 3.363 7.102 4.132 10.467 1.715z"/><path d="m466.772 95.359c-2.686-3.154-7.418-3.534-10.573-.849-3.154 2.685-3.534 7.418-.849 10.573 24.103 28.312 37.377 64.401 37.377 101.62 0 37.56-13.48 73.896-37.958 102.316-24.225 28.126-57.639 46.805-94.087 52.596-4.091.65-6.88 4.493-6.23 8.584.587 3.692 3.774 6.324 7.398 6.324.391 0 .788-.031 1.186-.094 39.947-6.347 76.562-26.811 103.099-57.622 26.822-31.141 41.593-70.954 41.593-112.105-.001-40.777-14.546-80.32-40.956-111.343z"/><path d="m79.954 158.679c12.419-4.913 25.549-7.404 39.026-7.404 19.441 0 38.441 5.304 54.971 15.333 19.531 12.227 34.776 30.703 42.974 52.16 1.142 2.989 3.988 4.825 7.007 4.825.89 0 1.795-.16 2.675-.496 3.87-1.478 5.808-5.813 4.329-9.683-8.633-22.597-24.12-42.281-43.965-56.149 7.064-21.242 18.791-41.027 34.144-57.497 2.825-3.03 2.658-7.775-.372-10.6-3.029-2.823-7.775-2.657-10.6.373-16.052 17.22-28.499 37.755-36.331 59.833-16.917-8.593-35.69-13.098-54.833-13.098-15.375 0-30.361 2.845-44.544 8.456-3.852 1.524-5.739 5.881-4.215 9.733 1.524 3.851 5.884 5.737 9.734 4.214z"/><path d="m344.798 387.117-26.403 8.658-10.046-5.971v-44.585l9.145-5.435 26.883 8.815c.776.255 1.563.375 2.338.375 3.154 0 6.089-2.005 7.125-5.165 1.291-3.936-.854-8.173-4.79-9.463l-14.441-4.735 8.915-5.299c3.561-2.116 4.731-6.718 2.615-10.279s-6.718-4.731-10.279-2.615l-8.629 5.129 2.651-14.451c.747-4.074-1.95-7.982-6.024-8.73-4.072-.75-7.982 1.95-8.73 6.024l-5.013 27.33-9.198 5.467-37.656-22.536v-9.04l21.313-18.605c3.121-2.724 3.442-7.461.718-10.582-2.723-3.12-7.462-3.442-10.582-.718l-11.449 9.994v-10.371c0-4.142-3.358-7.5-7.5-7.5s-7.5 3.358-7.5 7.5v10.039l-11.069-9.662c-3.121-2.724-7.859-2.403-10.582.718-2.724 3.121-2.403 7.858.718 10.582l20.933 18.273v10.228l-36.875 21.668-9.178-5.455-5.013-27.33c-.748-4.075-4.659-6.77-8.73-6.024-4.074.748-6.771 4.656-6.024 8.73l2.651 14.451-8.629-5.129c-3.561-2.117-8.163-.945-10.279 2.615-2.116 3.561-.945 8.163 2.615 10.279l8.915 5.299-14.441 4.735c-3.936 1.291-6.081 5.527-4.79 9.463 1.036 3.16 3.971 5.165 7.125 5.165.774 0 1.563-.121 2.338-.375l26.883-8.815 9.034 5.37v44.716l-9.935 5.905-26.403-8.658c-3.934-1.292-8.172.854-9.463 4.79s.854 8.173 4.79 9.463l13.961 4.578-8.63 5.129c-3.561 2.116-4.731 6.718-2.615 10.279 1.402 2.359 3.896 3.669 6.454 3.669 1.303 0 2.624-.34 3.825-1.054l8.915-5.299-2.742 14.948c-.747 4.074 1.95 7.982 6.024 8.73.458.084.913.125 1.362.125 3.55 0 6.705-2.532 7.368-6.148l5.104-27.827 9.564-5.684 36.819 21.635v10.987l-20.933 18.274c-3.121 2.724-3.442 7.462-.718 10.582 2.725 3.121 7.462 3.442 10.582.718l11.069-9.663v10.039c0 4.142 3.358 7.5 7.5 7.5s7.5-3.358 7.5-7.5v-10.371l11.449 9.994c1.422 1.241 3.179 1.851 4.929 1.85 2.09 0 4.17-.869 5.653-2.568 2.724-3.12 2.403-7.858-.718-10.582l-21.313-18.605v-9.799l37.6-22.503 9.584 5.696 5.104 27.827c.664 3.617 3.818 6.148 7.368 6.148.449 0 .905-.041 1.362-.125 4.074-.748 6.771-4.656 6.024-8.73l-2.742-14.948 8.915 5.299c1.202.714 2.521 1.054 3.825 1.054 2.559 0 5.052-1.31 6.454-3.669 2.116-3.561.945-8.163-2.615-10.279l-8.63-5.129 13.961-4.578c3.936-1.291 6.081-5.527 4.79-9.463s-5.53-6.082-9.463-4.79zm-51.45-6.228-22.507-13.377 22.507-13.377zm-7.087-39.992-23 13.67v-27.436zm-38-12.992v26.186l-22.155-13.168zm-29.397 26.164 22.618 13.443-22.618 13.443zm7.298 39.998 22.099-13.135v26.12zm37.099 13.759v-27.37l22.945 13.638z"/><path d="m284.983 299.018-1.69 2.611c-2.251 3.477-1.258 8.121 2.219 10.372 1.26.816 2.672 1.206 4.069 1.206 2.458 0 4.867-1.208 6.302-3.425l1.69-2.611c2.251-3.477 1.258-8.121-2.219-10.372-3.476-2.252-8.119-1.259-10.371 2.219z"/><path d="m214.637 307.169 1.69 2.611c1.436 2.218 3.844 3.426 6.303 3.426 1.396 0 2.809-.39 4.068-1.205 3.478-2.251 4.472-6.895 2.221-10.372l-1.69-2.611c-2.252-3.478-6.896-4.472-10.372-2.221-3.476 2.252-4.47 6.895-2.22 10.372z"/><path d="m295.884 425.177c-2.251-3.477-6.896-4.472-10.372-2.219-3.477 2.251-4.471 6.895-2.219 10.372l1.69 2.611c1.436 2.217 3.844 3.425 6.302 3.425 1.396 0 2.81-.39 4.069-1.206 3.477-2.251 4.471-6.895 2.219-10.372z"/><path d="m227.23 435.939 1.69-2.611c2.25-3.477 1.256-8.121-2.221-10.372-3.476-2.25-8.12-1.255-10.371 2.221l-1.69 2.611c-2.25 3.477-1.256 8.121 2.221 10.371 1.259.815 2.672 1.205 4.068 1.205 2.458.001 4.867-1.208 6.303-3.425z"/><path d="m187.298 374.979c4.142 0 7.5-3.358 7.5-7.5s-3.358-7.5-7.5-7.5h-3.059c-4.142 0-7.5 3.358-7.5 7.5s3.358 7.5 7.5 7.5z"/><path d="m324.224 359.979c-4.142 0-7.5 3.358-7.5 7.5s3.358 7.5 7.5 7.5h3.059c4.142 0 7.5-3.358 7.5-7.5s-3.358-7.5-7.5-7.5z"/></g></g></svg>