<svg id="Capa_1" enable-background="new 0 0 511.067 511.067" height="512" viewBox="0 0 511.067 511.067" width="512" xmlns="http://www.w3.org/2000/svg"><g><g><circle cx="140.169" cy="132.859" fill="#fdb441" r="128.559"/><g><path d="m357.339 78.237c-58.498.43-108.329 37.236-128.041 88.926-1.963 5.148-7.836 7.581-12.826 5.251-11.9-5.555-25.13-8.733-39.087-8.912-52.447-.674-96.016 41.714-96.736 94.181-.732 53.38 42.304 96.873 95.484 96.873h182.242c76.62 0 138.667-62.419 138.104-139.199-.558-75.984-63.186-137.678-139.14-137.12z" fill="#d7d0d6"/></g><path d="m116.333 294.346c.72-52.467 44.289-94.855 96.736-94.181 13.957.179 27.187 3.357 39.087 8.912 4.991 2.33 10.863-.104 12.826-5.251 19.712-51.69 69.542-88.496 128.041-88.926 29.825-.219 57.592 9.148 80.356 25.222-25.009-37.531-67.838-62.239-116.04-61.884-58.498.43-108.329 37.236-128.041 88.926-1.963 5.148-7.836 7.581-12.826 5.251-11.9-5.555-25.131-8.733-39.087-8.912-52.447-.674-96.016 41.714-96.736 94.181-.491 35.782 18.686 67.119 47.401 83.893-7.671-13.986-11.952-30.097-11.717-47.231z" fill="#c9bfc8"/><g><path d="m336.498 336.806-113.95 54.337c-2.181 1.04-2.444 4.039-.478 5.443l24.693 17.638c1.615 1.154 1.786 3.491.354 4.867l-44.975 43.223c-2.369 2.277-.138 6.211 3.032 5.346l119.331-32.545c2.565-.7 3.182-4.055 1.034-5.622l-27.535-20.078c-1.382-1.008-1.716-2.93-.754-4.345l43.237-63.62c1.817-2.675-1.069-6.037-3.989-4.644z" fill="#fee45a"/></g></g><g><path d="m127.435 399.997c-3.693-1.874-8.208-.401-10.083 3.292l-49.18 96.881c-1.875 3.694-.401 8.208 3.292 10.083 1.088.552 2.247.814 3.389.814 2.735 0 5.371-1.501 6.693-4.106l49.18-96.881c1.876-3.694.402-8.208-3.291-10.083z"/><path d="m152.649 443.071c-3.693-1.875-8.207-.401-10.083 3.292l-27.315 53.807c-1.875 3.693-.401 8.208 3.292 10.083 1.088.552 2.247.814 3.389.814 2.735 0 5.371-1.501 6.693-4.106l27.315-53.807c1.877-3.694.403-8.208-3.291-10.083z"/><path d="m174.514 399.997c-3.693-1.874-8.208-.401-10.083 3.292l-10.02 19.738c-1.875 3.694-.401 8.208 3.292 10.083 1.088.552 2.247.814 3.389.814 2.735 0 5.371-1.501 6.693-4.106l10.02-19.738c1.877-3.694.403-8.208-3.291-10.083z"/><path d="m392.627 399.997c-3.692-1.874-8.207-.4-10.082 3.292l-49.18 96.881c-1.875 3.694-.4 8.208 3.293 10.083 1.088.552 2.247.814 3.389.814 2.734 0 5.371-1.501 6.693-4.106l49.18-96.881c1.875-3.694.401-8.208-3.293-10.083z"/><path d="m439.707 399.997c-3.692-1.874-8.208-.4-10.082 3.292l-49.181 96.881c-1.875 3.693-.401 8.208 3.293 10.083 1.088.552 2.247.814 3.389.814 2.734 0 5.371-1.501 6.693-4.106l49.181-96.881c1.875-3.694.402-8.208-3.293-10.083z"/><path d="m176.169 347.056c-26.249 0-50.938-11.593-67.735-31.807-2.647-3.187-7.376-3.622-10.562-.975s-3.622 7.376-.975 10.562c19.656 23.654 48.55 37.22 79.271 37.22h53.407c4.142 0 7.5-3.358 7.5-7.5s-3.358-7.5-7.5-7.5z"/><path d="m453.372 105.89c-3.142-2.698-7.877-2.343-10.576.799-2.7 3.142-2.343 7.876.799 10.577 28.944 24.876 45.544 61.007 45.544 99.128 0 68.614-53.576 125.877-121.971 130.366-4.133.271-7.264 3.842-6.993 7.975.261 3.966 3.559 7.009 7.477 7.009.165 0 .332-.006.499-.017 76.255-5.005 135.988-68.843 135.988-145.334 0-42.496-18.504-82.773-50.767-110.503z"/><path d="m73.14 259.027c0 12.358 2.172 24.457 6.457 35.959 1.125 3.019 3.986 4.884 7.029 4.884.87 0 1.754-.152 2.617-.474 3.881-1.446 5.856-5.765 4.41-9.646-3.658-9.821-5.513-20.158-5.513-30.723 0-48.539 39.49-88.028 88.029-88.028 16.211 0 32.053 4.443 45.813 12.848.018.011.064.036.068.039 15.29 9.357 27.228 22.932 34.526 39.256 1.246 2.787 3.983 4.441 6.851 4.441 1.023 0 2.063-.21 3.057-.655 3.782-1.69 5.477-6.126 3.786-9.908-7.743-17.32-19.964-31.975-35.507-42.72 8.332-24.422 24.06-46.28 44.726-61.992 22.867-17.386 50.181-26.575 78.988-26.575 21.164 0 41.362 4.906 60.031 14.582 3.678 1.906 8.203.471 10.11-3.208 1.905-3.678.47-8.204-3.208-10.11-20.53-10.64-43.676-16.264-66.934-16.264-32.001 0-62.35 10.178-87.795 29.432-6.843-26.204-21.587-49.932-42.347-67.788-24.274-20.878-55.299-32.377-87.359-32.377-28.046 0-54.907 8.572-77.679 24.791-3.374 2.403-4.161 7.086-1.758 10.459 2.402 3.374 7.085 4.161 10.459 1.758 20.218-14.398 44.07-22.008 68.978-22.008 28.472 0 56.023 10.21 77.578 28.75 20.331 17.487 34.166 41.306 39.257 67.414-16.084 15.439-28.586 34.502-36.218 55.37-14.069-6.915-29.599-10.536-45.424-10.536-48.159 0-88.7 33.215-99.933 77.939-33.729-21.859-54.307-59.248-54.307-99.89 0-27.962 9.894-55.138 27.86-76.523 2.664-3.171 2.253-7.902-.918-10.567-3.171-2.664-7.903-2.253-10.567.918-20.232 24.084-31.375 54.687-31.375 86.172 0 47.929 25.399 91.855 66.62 115.862-.265 3.006-.408 6.045-.408 9.118z"/><path d="m329.957 423.434-24.151-17.61 40.883-60.157c2.745-4.04 2.452-9.244-.73-12.949-3.182-3.706-8.279-4.784-12.688-2.68l-113.949 54.336c-3.446 1.643-5.703 4.894-6.038 8.697s1.321 7.399 4.428 9.619l20.451 14.607-41.216 39.61c-3.52 3.383-4.296 8.712-1.888 12.958 1.931 3.404 5.508 5.409 9.277 5.409.933 0 1.879-.123 2.813-.378l119.333-32.545c3.992-1.089 6.938-4.294 7.686-8.365s-.867-8.114-4.211-10.552zm-110.376 32.523 32.734-31.458c2.295-2.206 3.479-5.293 3.249-8.468-.231-3.176-1.85-6.059-4.44-7.909l-18.717-13.37 92.893-44.295-34.251 50.397c-3.255 4.787-2.142 11.21 2.537 14.622l20.261 14.773z"/></g></g></svg>