<svg id="Capa_1" enable-background="new 0 0 513.56 513.56" height="512" viewBox="0 0 513.56 513.56" width="512" xmlns="http://www.w3.org/2000/svg"><g><g><circle cx="256.78" cy="256.78" fill="#fdb441" r="194.786"/><circle cx="256.78" cy="256.78" fill="#fedf30" r="154.787"/><path d="m172.857 253.411c0-64.856 35.478-121.42 88.082-151.361-1.382-.036-2.768-.057-4.159-.057-85.486 0-154.787 69.3-154.787 154.787s69.3 154.787 154.787 154.787c5.302 0 10.541-.268 15.705-.789-58.892-27.899-99.628-87.872-99.628-157.367z" fill="#fed402"/></g><g><path d="m94.493 256.78c0 51.85 25.103 101 67.149 131.476 1.33.964 2.869 1.428 4.396 1.428 2.321 0 4.611-1.075 6.078-3.099 2.432-3.354 1.683-8.043-1.671-10.474-38.166-27.663-60.952-72.272-60.952-119.33 0-54.046 29.529-103.669 77.064-129.502 3.64-1.978 4.986-6.532 3.009-10.171-1.978-3.639-6.53-4.987-10.171-3.009-52.37 28.46-84.902 83.132-84.902 142.681z"/><path d="m210.426 101.224c-3.971 1.181-6.231 5.357-5.05 9.328s5.361 6.232 9.327 5.049c13.62-4.053 27.777-6.108 42.076-6.108 39.971 0 77.38 15.752 105.335 44.356 1.469 1.503 3.415 2.258 5.364 2.258 1.89 0 3.782-.71 5.241-2.136 2.962-2.895 3.017-7.644.121-10.606-30.801-31.515-72.019-48.872-116.062-48.872-15.747 0-31.343 2.265-46.352 6.731z"/><path d="m186.921 395.139c-1.688 3.782.01 8.217 3.792 9.905 20.852 9.305 43.079 14.022 66.067 14.022 89.485 0 162.287-72.801 162.287-162.287 0-30.998-8.774-61.138-25.375-87.162-2.229-3.491-6.865-4.515-10.356-2.29-3.492 2.228-4.518 6.865-2.29 10.357 15.061 23.609 23.021 50.96 23.021 79.094 0 81.214-66.072 147.287-147.287 147.287-20.868 0-41.039-4.28-59.954-12.721-3.781-1.683-8.218.012-9.905 3.795z"/><path d="m66.73 303.031c-3.984 1.131-6.298 5.278-5.167 9.263 5.372 18.925 13.486 36.958 24.119 53.598 1.432 2.239 3.854 3.462 6.327 3.462 1.382 0 2.78-.382 4.031-1.181 3.49-2.23 4.512-6.868 2.282-10.358-9.845-15.406-17.357-32.1-22.33-49.617-1.13-3.985-5.279-6.301-9.262-5.167z"/><path d="m354.384 87.306c-2.207 3.505-1.154 8.136 2.352 10.343 55.071 34.669 87.95 94.157 87.95 159.131 0 4.547-.171 9.204-.509 13.841-.301 4.131 2.805 7.724 6.937 8.025.185.013.369.02.552.02 3.895 0 7.186-3.01 7.473-6.956.363-4.998.548-10.021.548-14.93 0-34.923-9.023-69.365-26.095-99.6-16.545-29.305-40.358-54.28-68.865-72.225-3.503-2.206-8.136-1.155-10.343 2.351z"/><path d="m446.83 303.031c-3.987-1.134-8.133 1.182-9.263 5.167-4.973 17.517-12.485 34.21-22.33 49.617-2.229 3.491-1.208 8.128 2.282 10.358 1.251.8 2.648 1.181 4.031 1.181 2.474 0 4.896-1.223 6.327-3.462 10.633-16.64 18.747-34.673 24.119-53.598 1.132-3.985-1.182-8.132-5.166-9.263z"/><path d="m212.434 74.15c28.945-7.002 59.746-7.002 88.691 0 .593.144 1.186.212 1.77.212 3.383 0 6.453-2.305 7.284-5.738.974-4.026-1.5-8.08-5.526-9.053-31.252-7.561-64.494-7.561-95.746 0-4.026.974-6.5 5.027-5.526 9.053s5.027 6.502 9.053 5.526z"/><path d="m391.531 387.723c-35.703 36.733-83.559 56.963-134.751 56.963s-99.048-20.23-134.751-56.963c-2.886-2.971-7.634-3.039-10.605-.151-2.97 2.887-3.038 7.635-.15 10.605 38.551 39.665 90.227 61.509 145.507 61.509s106.956-21.844 145.507-61.509c2.888-2.97 2.819-7.718-.15-10.605-2.973-2.887-7.721-2.82-10.607.151z"/><path d="m53.874 256.78c0 4.909.185 9.932.548 14.93.287 3.946 3.578 6.956 7.473 6.956.183 0 .367-.007.552-.02 4.132-.301 7.237-3.894 6.937-8.025-.338-4.637-.509-9.293-.509-13.841 0-64.974 32.879-124.462 87.95-159.131 3.506-2.207 4.559-6.837 2.352-10.343-2.206-3.506-6.84-4.558-10.342-2.352-28.507 17.945-52.32 42.92-68.865 72.225-17.073 30.236-26.096 64.678-26.096 99.601z"/><path d="m256.78 43.649c4.143 0 7.5-3.358 7.5-7.5v-28.536c0-4.142-3.357-7.5-7.5-7.5s-7.5 3.358-7.5 7.5v28.536c0 4.142 3.357 7.5 7.5 7.5z"/><path d="m7.613 264.28h21.726c4.143 0 7.5-3.358 7.5-7.5s-3.357-7.5-7.5-7.5h-21.726c-4.143 0-7.5 3.358-7.5 7.5 0 4.142 3.357 7.5 7.5 7.5z"/><path d="m484.221 264.28h21.726c4.143 0 7.5-3.358 7.5-7.5s-3.357-7.5-7.5-7.5h-21.726c-4.143 0-7.5 3.358-7.5 7.5s3.358 7.5 7.5 7.5z"/><path d="m159.811 58.406c1.246 2.786 3.982 4.439 6.85 4.439 1.023 0 2.064-.211 3.059-.656 3.781-1.692 5.476-6.128 3.783-9.909l-11.635-26.005c-1.69-3.78-6.129-5.473-9.908-3.783-3.781 1.692-5.476 6.128-3.783 9.909z"/><path d="m57.51 163.616c1.755-3.752.135-8.216-3.617-9.97l-19.653-9.188c-3.752-1.755-8.218-.135-9.971 3.618-1.755 3.752-.135 8.216 3.617 9.97l19.653 9.188c1.027.48 2.108.708 3.172.708 2.822 0 5.526-1.6 6.799-4.326z"/><path d="m91.342 100.537c1.466 1.479 3.396 2.22 5.326 2.22 1.908 0 3.817-.724 5.28-2.173 2.941-2.916 2.962-7.665.046-10.606l-86.99-87.757c-2.915-2.942-7.664-2.963-10.606-.047-2.941 2.916-2.962 7.665-.046 10.606z"/><path d="m343.84 62.19c.994.445 2.034.656 3.059.656 2.866 0 5.604-1.653 6.85-4.439l11.635-26.005c1.692-3.781-.002-8.217-3.783-9.909-3.775-1.69-8.217.001-9.908 3.783l-11.636 26.004c-1.692 3.781.002 8.218 3.783 9.91z"/><path d="m489.291 148.075c-1.754-3.752-6.218-5.375-9.971-3.618l-19.653 9.188c-3.752 1.754-5.372 6.218-3.617 9.97 1.273 2.725 3.977 4.326 6.799 4.326 1.063 0 2.145-.228 3.172-.708l19.653-9.188c3.751-1.753 5.372-6.218 3.617-9.97z"/><path d="m416.891 102.758c1.931 0 3.86-.741 5.326-2.22l86.99-87.757c2.916-2.941 2.896-7.69-.046-10.606-2.943-2.917-7.692-2.895-10.606.047l-86.99 87.757c-2.916 2.941-2.896 7.69.046 10.606 1.463 1.449 3.372 2.173 5.28 2.173z"/><path d="m256.78 469.911c-4.143 0-7.5 3.358-7.5 7.5v28.536c0 4.142 3.357 7.5 7.5 7.5s7.5-3.358 7.5-7.5v-28.536c0-4.142-3.358-7.5-7.5-7.5z"/><path d="m169.719 451.37c-3.775-1.689-8.217.001-9.908 3.783l-11.635 26.005c-1.692 3.781.002 8.217 3.783 9.909.994.445 2.034.656 3.059.656 2.866 0 5.604-1.653 6.85-4.439l11.635-26.005c1.692-3.78-.002-8.217-3.784-9.909z"/><path d="m24.269 365.485c1.273 2.725 3.977 4.326 6.799 4.326 1.063 0 2.145-.228 3.172-.708l19.653-9.188c3.752-1.754 5.372-6.218 3.617-9.97-1.754-3.752-6.218-5.374-9.971-3.618l-19.653 9.188c-3.752 1.753-5.372 6.218-3.617 9.97z"/><path d="m91.342 413.023-86.99 87.757c-2.916 2.941-2.896 7.69.046 10.606 1.463 1.45 3.372 2.173 5.28 2.173 1.931 0 3.86-.741 5.326-2.22l86.99-87.757c2.916-2.941 2.896-7.69-.046-10.606-2.942-2.917-7.691-2.895-10.606.047z"/><path d="m353.749 455.154c-1.69-3.78-6.127-5.474-9.908-3.783-3.781 1.692-5.476 6.128-3.783 9.909l11.635 26.005c1.246 2.786 3.982 4.439 6.85 4.439 1.023 0 2.064-.211 3.059-.656 3.781-1.692 5.476-6.128 3.783-9.909z"/><path d="m422.217 413.023c-2.915-2.942-7.663-2.962-10.606-.047-2.941 2.916-2.962 7.665-.046 10.606l86.99 87.757c1.466 1.479 3.396 2.22 5.326 2.22 1.908 0 3.817-.724 5.28-2.173 2.941-2.916 2.962-7.665.046-10.606z"/></g></g></svg>