<svg id="Capa_1" enable-background="new 0 0 512.306 512.306" height="512" viewBox="0 0 512.306 512.306" width="512" xmlns="http://www.w3.org/2000/svg"><g><g><circle cx="211.498" cy="237.119" fill="#fdb441" r="204.515"/><circle cx="211.498" cy="237.119" fill="#fedf30" r="164.515"/><path d="m109.856 237.119c0-80.106 57.283-146.841 133.103-161.513-10.177-1.969-20.708-3.001-31.461-3.001-90.859 0-164.515 73.656-164.515 164.515s73.656 164.515 164.515 164.515c10.752 0 21.26-1.043 31.437-3.013-75.82-14.674-133.079-81.396-133.079-161.503z" fill="#fed402"/><g><g id="XMLID_269_"><g><path d="m386.591 246.222c62.913 0 113.915 51.695 113.89 115.463-.025 63.904-51.921 115.369-114.979 115.369h-148.346c-43.524 0-79.453-35.42-79.598-79.527-.146-44.203 35.166-80.08 78.744-80.08 11.913 0 23.211 2.683 33.333 7.484 4.07 1.93 8.866-.019 10.461-4.276 16.31-43.513 57.834-74.433 106.495-74.433z" fill="#f9f3f1"/></g></g></g><path d="m193.458 422.097c-.146-44.203 35.166-80.08 78.744-80.08 11.913 0 23.211 2.683 33.333 7.484 4.07 1.93 8.866-.019 10.461-4.276 16.31-43.514 57.834-74.434 106.495-74.434 15.82 0 30.885 3.271 44.577 9.179-20.606-20.853-49.055-33.749-80.476-33.749-48.661 0-90.185 30.92-106.495 74.434-1.596 4.257-6.392 6.206-10.461 4.276-10.122-4.801-21.42-7.484-33.333-7.484-43.578 0-78.89 35.876-78.744 80.08.116 35.219 23.048 64.897 54.443 75.429-11.5-13.761-18.48-31.47-18.544-50.859z" fill="#f3eae6"/></g><g><path d="m262.461 76.608c-16.446-5.193-33.593-7.826-50.963-7.826-93.238 0-169.093 75.854-169.093 169.092 0 58.51 29.616 112.059 79.223 143.244 1.239.779 2.62 1.151 3.984 1.151 2.493 0 4.932-1.243 6.356-3.51 2.204-3.506 1.148-8.136-2.358-10.341-45.212-28.423-72.205-77.225-72.205-130.545 0-84.967 69.126-154.092 154.093-154.092 15.836 0 31.462 2.399 46.445 7.131 3.955 1.248 8.163-.944 9.411-4.894 1.248-3.949-.944-8.162-4.893-9.41z"/><path d="m286.042 102.989c42.375 23.476 71.574 66.021 78.108 113.811.514 3.76 3.729 6.485 7.421 6.485.339 0 .682-.023 1.025-.07 4.104-.561 6.977-4.343 6.415-8.446-7.171-52.453-39.209-99.145-85.7-124.9-3.625-2.006-8.188-.698-10.195 2.926s-.697 8.187 2.926 10.194z"/><path d="m22.445 291.642c-1.131-3.984-5.274-6.297-9.263-5.167-3.984 1.131-6.298 5.277-5.167 9.263 5.598 19.727 14.057 38.522 25.14 55.867 1.432 2.24 3.854 3.463 6.327 3.463 1.382 0 2.78-.382 4.031-1.181 3.491-2.23 4.512-6.868 2.282-10.358-10.295-16.112-18.15-33.569-23.35-51.887z"/><path d="m316.024 71.466c24.857 15.648 46.265 37.06 61.907 61.917 16.014 25.449 26.065 54.712 29.067 84.627.389 3.867 3.648 6.752 7.454 6.752.25 0 .503-.013.758-.038 4.121-.414 7.127-4.091 6.714-8.212-3.233-32.209-14.056-63.718-31.298-91.117-16.831-26.747-39.865-49.785-66.612-66.622-3.502-2.205-8.136-1.155-10.342 2.352-2.206 3.504-1.153 8.135 2.352 10.341z"/><path d="m165.125 46.893c30.266-7.322 62.48-7.322 92.746 0 .593.143 1.186.212 1.77.212 3.383 0 6.453-2.305 7.284-5.738.974-4.026-1.501-8.079-5.526-9.054-32.574-7.879-67.227-7.879-99.801 0-4.025.975-6.5 5.027-5.526 9.054.974 4.024 5.02 6.493 9.053 5.526z"/><path d="m129.357 416.425c-22.023-10.154-41.798-24.157-58.771-41.621-2.886-2.969-7.632-3.039-10.605-.15-2.97 2.887-3.038 7.635-.15 10.605 18.264 18.79 39.543 33.859 63.248 44.787 1.017.47 2.084.691 3.135.691 2.836 0 5.551-1.617 6.815-4.362 1.734-3.76.09-8.216-3.672-9.95z"/><path d="m8.597 260.372c4.131-.302 7.236-3.895 6.936-8.025-.354-4.846-.533-9.715-.533-14.473 0-67.944 34.382-130.152 91.972-166.407 3.506-2.206 4.559-6.837 2.352-10.342-2.206-3.507-6.838-4.558-10.343-2.352-29.713 18.705-54.535 44.738-71.781 75.283-17.795 31.516-27.2 67.415-27.2 103.818 0 5.121.192 10.357.571 15.563.288 3.946 3.578 6.955 7.473 6.955.183-.001.367-.007.553-.02z"/><path d="m454.329 256.521c-3.501-2.212-8.135-1.168-10.347 2.335-2.212 3.501-1.167 8.134 2.335 10.347 31.927 20.174 50.988 54.729 50.988 92.435 0 60.249-49.016 109.265-109.264 109.265h-154.074c-40.381 0-73.233-32.853-73.233-73.233 0-15.326 4.702-30.016 13.6-42.48 2.406-3.371 1.624-8.056-1.747-10.462-3.374-2.406-8.056-1.624-10.462 1.747-10.723 15.022-16.391 32.726-16.391 51.195 0 48.652 39.581 88.233 88.233 88.233h154.075c68.52 0 124.264-55.745 124.264-124.265 0-42.883-21.673-82.178-57.977-105.117z"/><path d="m187.686 322.546c-3.524 2.176-4.618 6.797-2.442 10.321 1.418 2.297 3.874 3.562 6.389 3.562 1.344 0 2.705-.361 3.933-1.119 11.527-7.115 24.807-10.876 38.402-10.876 13.486 0 26.665 3.695 38.113 10.688.012.007.05.029.057.033 13.775 8.431 24.523 21.352 30.267 36.383 1.142 2.989 3.987 4.825 7.008 4.825.889 0 1.794-.159 2.675-.496 3.869-1.478 5.808-5.813 4.329-9.683-6.218-16.275-17.313-30.48-31.535-40.563 7.037-20.092 20.057-38.063 37.108-51.025 19.122-14.538 41.964-22.223 66.054-22.223 10.539 0 20.977 1.505 31.023 4.474 3.969 1.175 8.145-1.094 9.317-5.067 1.174-3.972-1.095-8.144-5.067-9.317-11.427-3.377-23.295-5.089-35.273-5.089-27.397 0-53.377 8.742-75.132 25.281-18.594 14.137-32.991 33.515-41.198 55.244-11.742-5.559-24.626-8.465-37.745-8.465-16.383 0-32.387 4.534-46.283 13.112z"/></g></g></svg>