<svg id="Capa_1" enable-background="new 0 0 513.334 513.334" height="512" viewBox="0 0 513.334 513.334" width="512" xmlns="http://www.w3.org/2000/svg"><g><g><path d="m441.259 358.298c9.37-23.09 14.546-48.313 14.546-74.727 0-109.929-89.434-199.362-199.362-199.362s-199.363 89.434-199.363 199.363c0 26.413 5.176 51.636 14.546 74.727h369.633z" fill="#fdb441"/><path d="m398.353 358.298c11.776-22.316 18.452-47.74 18.452-74.727 0-88.566-71.797-160.363-160.363-160.363s-160.362 71.798-160.362 160.364c0 26.987 6.676 52.411 18.452 74.727h283.821z" fill="#fedf30"/><path d="m282.119 125.25c-8.357-1.344-16.94-2.041-25.677-2.041-88.566 0-160.363 71.797-160.363 160.363 0 26.987 6.676 52.411 18.452 74.727h51.328c-11.776-22.316-18.452-47.74-18.452-74.727 0-79.83 58.348-146.037 134.712-158.322z" fill="#fed402"/><g><path d="m313.662 308.073-52.691-57.083c-2.589-2.805-7.02-2.805-9.609 0l-52.691 57.083c-3.866 4.188-.895 10.973 4.804 10.973h28.314v69.098c0 3.275 2.655 5.931 5.931 5.931h37.891c3.275 0 5.931-2.655 5.931-5.931v-69.098h27.314c5.701 0 8.672-6.785 4.806-10.973z" fill="#a2e62e"/></g></g><g><path d="m95.347 233.105c-1.26 3.945.917 8.166 4.862 9.427.759.242 1.527.357 2.284.357 3.175 0 6.124-2.033 7.143-5.22 11.82-37.003 37.021-67.948 70.961-87.135 3.605-2.039 4.876-6.614 2.838-10.221-2.039-3.605-6.615-4.878-10.221-2.838-37.239 21.055-64.893 55.016-77.867 95.63z"/><path d="m207.082 97.975c15.959-4.188 32.473-6.311 49.085-6.311 16.899 0 33.699 2.2 49.932 6.539.648.174 1.3.257 1.941.257 3.313 0 6.345-2.212 7.24-5.565 1.07-4.001-1.307-8.112-5.309-9.182-17.495-4.678-35.598-7.049-53.805-7.049-17.896 0-35.691 2.289-52.892 6.803-4.007 1.051-6.402 5.151-5.351 9.157 1.053 4.007 5.151 6.404 9.159 5.351z"/><path d="m201.791 365.798c4.143 0 7.5-3.357 7.5-7.5s-3.357-7.5-7.5-7.5h-84.447c-9.942-20.744-14.98-43.02-14.98-66.286 0-5.565.313-11.255.932-16.91.451-4.118-2.522-7.82-6.64-8.271-4.122-.469-7.82 2.522-8.271 6.64-.678 6.195-1.021 12.434-1.021 18.541 0 22.773 4.67 45.453 13.548 66.286h-25.891c-7.764-21.197-11.702-43.469-11.702-66.286 0-63.551 31.324-123.012 83.793-159.059 3.414-2.346 4.28-7.015 1.935-10.429s-7.015-4.28-10.429-1.935c-56.542 38.846-90.299 102.929-90.299 171.422 0 22.743 3.638 44.989 10.808 66.286h-51.049c-4.143 0-7.5 3.357-7.5 7.5s3.357 7.5 7.5 7.5h193.713z"/><path d="m504.756 350.798h-51.55c7.17-21.297 10.808-43.543 10.808-66.286 0-68.12-33.469-132.004-89.53-170.89-3.404-2.357-8.076-1.515-10.438 1.889-2.36 3.403-1.515 8.076 1.889 10.438 52.021 36.083 83.079 95.359 83.079 158.563 0 22.817-3.938 45.09-11.702 66.286h-25.891c8.878-20.833 13.548-43.513 13.548-66.286 0-93.078-75.725-168.803-168.803-168.803-17.824 0-35.403 2.777-52.25 8.256-3.939 1.281-6.094 5.513-4.813 9.452 1.282 3.94 5.515 6.093 9.452 4.813 15.347-4.991 31.365-7.521 47.611-7.521 84.807 0 153.803 68.996 153.803 153.803 0 23.266-5.038 45.542-14.98 66.286h-83.447c-4.143 0-7.5 3.357-7.5 7.5s3.357 7.5 7.5 7.5h193.213c4.143 0 7.5-3.357 7.5-7.5s-3.357-7.5-7.499-7.5z"/><path d="m197.043 394.578c0-4.143-3.357-7.5-7.5-7.5h-115.116c-4.143 0-7.5 3.357-7.5 7.5s3.357 7.5 7.5 7.5h115.116c4.143 0 7.5-3.358 7.5-7.5z"/><path d="m438.907 387.078h-115.116c-4.143 0-7.5 3.357-7.5 7.5s3.357 7.5 7.5 7.5h115.116c4.143 0 7.5-3.357 7.5-7.5s-3.357-7.5-7.5-7.5z"/><path d="m335.155 436.718h-157.476c-4.143 0-7.5 3.357-7.5 7.5s3.357 7.5 7.5 7.5h157.477c4.143 0 7.5-3.357 7.5-7.5s-3.358-7.5-7.501-7.5z"/><path d="m281.543 486.358h-50.252c-4.143 0-7.5 3.357-7.5 7.5s3.357 7.5 7.5 7.5h50.252c4.143 0 7.5-3.357 7.5-7.5s-3.357-7.5-7.5-7.5z"/><path d="m256.667 55.512c4.143 0 7.5-3.357 7.5-7.5v-28.536c0-4.143-3.357-7.5-7.5-7.5s-7.5 3.357-7.5 7.5v28.536c0 4.143 3.357 7.5 7.5 7.5z"/><path d="m7.5 276.143h21.726c4.143 0 7.5-3.357 7.5-7.5s-3.357-7.5-7.5-7.5h-21.726c-4.143 0-7.5 3.357-7.5 7.5s3.357 7.5 7.5 7.5z"/><path d="m476.608 268.643c0 4.143 3.357 7.5 7.5 7.5h21.726c4.143 0 7.5-3.357 7.5-7.5s-3.357-7.5-7.5-7.5h-21.726c-4.142 0-7.5 3.357-7.5 7.5z"/><path d="m159.698 70.269c1.246 2.787 3.983 4.439 6.85 4.439 1.023 0 2.064-.211 3.059-.656 3.781-1.691 5.476-6.128 3.783-9.908l-11.635-26.005c-1.69-3.781-6.127-5.475-9.908-3.783s-5.476 6.128-3.783 9.908z"/><path d="m27.773 169.909 19.653 9.188c1.027.48 2.108.708 3.172.708 2.821 0 5.525-1.601 6.799-4.325 1.755-3.753.135-8.217-3.617-9.971l-19.653-9.188c-3.753-1.755-8.218-.135-9.971 3.617-1.755 3.753-.135 8.217 3.617 9.971z"/><path d="m91.229 112.401c1.466 1.479 3.396 2.22 5.326 2.22 1.908 0 3.817-.724 5.28-2.174 2.941-2.916 2.962-7.664.046-10.606l-46.09-46.495c-2.914-2.941-7.663-2.963-10.606-.046-2.941 2.916-2.962 7.664-.046 10.606z"/><path d="m343.728 74.052c.994.445 2.034.656 3.059.656 2.866 0 5.604-1.653 6.85-4.439l11.635-26.005c1.692-3.78-.002-8.217-3.783-9.908-3.774-1.691-8.217.001-9.908 3.783l-11.635 26.005c-1.694 3.78 0 8.217 3.782 9.908z"/><path d="m455.937 175.48c1.273 2.725 3.977 4.325 6.799 4.325 1.063 0 2.145-.228 3.172-.708l19.653-9.188c3.752-1.754 5.372-6.218 3.617-9.971-1.754-3.752-6.219-5.374-9.971-3.617l-19.653 9.188c-3.752 1.754-5.372 6.218-3.617 9.971z"/><path d="m416.778 114.621c1.93 0 3.86-.741 5.326-2.22l46.09-46.495c2.916-2.942 2.896-7.69-.046-10.606-2.94-2.915-7.689-2.895-10.606.046l-46.09 46.495c-2.916 2.942-2.896 7.69.046 10.606 1.463 1.45 3.371 2.174 5.28 2.174z"/><path d="m203.477 326.546h20.814v61.598c0 7.405 6.025 13.431 13.431 13.431h37.891c7.405 0 13.431-6.025 13.431-13.431v-61.598h19.814c5.662 0 10.589-3.222 12.86-8.408 2.271-5.187 1.296-10.992-2.545-15.152l-20.212-21.896c-2.809-3.042-7.555-3.233-10.598-.424-3.044 2.81-3.233 7.554-.424 10.598l18.723 20.283h-25.119c-4.143 0-7.5 3.357-7.5 7.5v67.528h-34.752v-67.528c0-4.143-3.357-7.5-7.5-7.5h-26.119l50.495-54.703 10.076 10.915c2.811 3.045 7.557 3.233 10.598.424 3.044-2.81 3.233-7.555.424-10.598l-10.782-11.681c-2.649-2.87-6.409-4.517-10.315-4.517s-7.666 1.646-10.315 4.517l-52.69 57.082c-3.841 4.16-4.815 9.966-2.545 15.152 2.27 5.187 7.196 8.408 12.859 8.408z"/></g></g></svg>