<svg id="Capa_1" enable-background="new 0 0 513.334 513.334" height="512" viewBox="0 0 513.334 513.334" width="512" xmlns="http://www.w3.org/2000/svg"><g><g><path d="m440.984 358.298c9.37-23.09 14.546-48.313 14.546-74.727 0-109.929-89.434-199.362-199.362-199.362s-199.363 89.434-199.363 199.363c0 26.413 5.176 51.636 14.546 74.727h369.633z" fill="#fdb441"/><path d="m398.077 358.298c11.776-22.316 18.452-47.74 18.452-74.727 0-88.566-71.797-160.363-160.363-160.363s-160.362 71.798-160.362 160.364c0 26.987 6.676 52.411 18.452 74.727h283.821z" fill="#fedf30"/><path d="m281.844 125.25c-8.357-1.344-16.94-2.041-25.677-2.041-88.566 0-160.363 71.797-160.363 160.363 0 26.987 6.676 52.411 18.452 74.727h51.328c-11.776-22.316-18.452-47.74-18.452-74.727 0-79.83 58.347-146.037 134.712-158.322z" fill="#fed402"/><g id="XMLID_207_"><g><path d="m308.857 303.813c5.7 0 8.67 6.78 4.81 10.97l-40.17 43.52h-34.66l-40.17-43.52c-3.86-4.19-.89-10.97 4.81-10.97h27.31v-69.1c0-3.27 2.66-5.93 5.93-5.93h37.9c3.27 0 5.93 2.66 5.93 5.93v69.1z" fill="#f37c7c"/></g></g></g><g><path d="m312.302 125.283c-18.018-6.353-36.903-9.573-56.135-9.573-35.282 0-69.077 10.773-97.733 31.155-28.027 19.935-49.063 47.472-60.833 79.634-1.424 3.89.575 8.197 4.466 9.62.851.312 1.721.459 2.576.459 3.059 0 5.932-1.886 7.044-4.925 10.724-29.302 29.895-54.395 55.44-72.564 26.103-18.565 56.893-28.379 89.04-28.379 17.528 0 34.736 2.934 51.146 8.72 3.908 1.378 8.189-.673 9.567-4.579 1.378-3.908-.672-8.191-4.578-9.568z"/><path d="m207.082 97.975c15.959-4.188 32.473-6.311 49.085-6.311 16.899 0 33.699 2.2 49.932 6.539.648.174 1.3.257 1.941.257 3.313 0 6.345-2.212 7.24-5.565 1.07-4.001-1.307-8.112-5.309-9.182-17.495-4.678-35.598-7.049-53.805-7.049-17.896 0-35.691 2.289-52.892 6.803-4.007 1.051-6.402 5.151-5.351 9.157 1.053 4.007 5.151 6.404 9.159 5.351z"/><path d="m504.756 350.798h-51.55c7.17-21.297 10.808-43.543 10.808-66.286 0-68.12-33.469-132.004-89.53-170.89-3.403-2.357-8.075-1.515-10.438 1.889-2.36 3.403-1.515 8.076 1.889 10.438 52.021 36.083 83.079 95.359 83.079 158.563 0 22.817-3.938 45.09-11.702 66.286h-25.891c8.878-20.833 13.548-43.513 13.548-66.286 0-29.747-7.848-58.996-22.696-84.585-14.4-24.819-35.039-45.718-59.684-60.435-3.556-2.123-8.161-.962-10.285 2.594-2.123 3.557-.962 8.161 2.594 10.285 22.464 13.414 41.275 32.462 54.401 55.083 13.522 23.305 20.67 49.951 20.67 77.058 0 23.266-5.038 45.542-14.98 66.286h-104.363l28.546-30.926c3.841-4.16 4.815-9.966 2.545-15.151-2.271-5.187-7.198-8.408-12.86-8.408h-20.814v-15.443c0-4.143-3.357-7.5-7.5-7.5s-7.5 3.357-7.5 7.5v22.943c0 4.143 3.357 7.5 7.5 7.5h26.118l-36.447 39.485h-28.094l-36.447-39.485h25.118c4.143 0 7.5-3.357 7.5-7.5v-67.529h34.752v12.611c0 4.143 3.357 7.5 7.5 7.5s7.5-3.357 7.5-7.5v-14.181c0-7.405-6.025-13.431-13.431-13.431h-37.891c-7.405 0-13.431 6.025-13.431 13.431v61.599h-19.814c-5.662 0-10.59 3.222-12.86 8.408-2.271 5.186-1.296 10.991 2.545 15.151l28.546 30.926h-104.363c-9.942-20.744-14.98-43.02-14.98-66.286 0-7.807.591-15.649 1.756-23.31.622-4.096-2.192-7.92-6.287-8.543-4.09-.615-7.921 2.191-8.543 6.287-1.277 8.405-1.926 17.006-1.926 25.565 0 22.773 4.67 45.453 13.548 66.286h-25.891c-7.764-21.197-11.702-43.469-11.702-66.286 0-63.551 31.324-123.012 83.793-159.059 3.414-2.346 4.28-7.015 1.935-10.429s-7.015-4.28-10.429-1.935c-56.542 38.846-90.299 102.929-90.299 171.422 0 22.743 3.638 44.989 10.808 66.286h-51.049c-4.143 0-7.5 3.357-7.5 7.5s3.357 7.5 7.5 7.5h496.678c4.143 0 7.5-3.357 7.5-7.5s-3.358-7.498-7.5-7.498z"/><path d="m197.043 394.578c0-4.143-3.357-7.5-7.5-7.5h-115.116c-4.143 0-7.5 3.357-7.5 7.5s3.357 7.5 7.5 7.5h115.116c4.143 0 7.5-3.358 7.5-7.5z"/><path d="m438.907 387.078h-115.116c-4.143 0-7.5 3.357-7.5 7.5s3.357 7.5 7.5 7.5h115.116c4.143 0 7.5-3.357 7.5-7.5s-3.357-7.5-7.5-7.5z"/><path d="m335.155 436.718h-157.476c-4.143 0-7.5 3.357-7.5 7.5s3.357 7.5 7.5 7.5h157.477c4.143 0 7.5-3.357 7.5-7.5s-3.358-7.5-7.501-7.5z"/><path d="m281.543 486.358h-50.252c-4.143 0-7.5 3.357-7.5 7.5s3.357 7.5 7.5 7.5h50.252c4.143 0 7.5-3.357 7.5-7.5s-3.357-7.5-7.5-7.5z"/><path d="m256.667 55.512c4.143 0 7.5-3.357 7.5-7.5v-28.536c0-4.143-3.357-7.5-7.5-7.5s-7.5 3.357-7.5 7.5v28.536c0 4.143 3.357 7.5 7.5 7.5z"/><path d="m7.5 276.143h21.726c4.143 0 7.5-3.357 7.5-7.5s-3.357-7.5-7.5-7.5h-21.726c-4.143 0-7.5 3.357-7.5 7.5s3.357 7.5 7.5 7.5z"/><path d="m476.608 268.643c0 4.143 3.357 7.5 7.5 7.5h21.726c4.143 0 7.5-3.357 7.5-7.5s-3.357-7.5-7.5-7.5h-21.726c-4.142 0-7.5 3.357-7.5 7.5z"/><path d="m159.698 70.269c1.246 2.787 3.983 4.439 6.85 4.439 1.023 0 2.064-.211 3.059-.656 3.781-1.691 5.476-6.128 3.783-9.908l-11.635-26.005c-1.69-3.781-6.129-5.475-9.908-3.783-3.781 1.691-5.476 6.128-3.783 9.908z"/><path d="m27.773 169.909 19.653 9.188c1.027.48 2.108.708 3.172.708 2.821 0 5.525-1.601 6.799-4.325 1.755-3.753.135-8.217-3.617-9.971l-19.653-9.188c-3.752-1.755-8.218-.135-9.971 3.617-1.755 3.753-.135 8.217 3.617 9.971z"/><path d="m91.229 112.401c1.466 1.479 3.396 2.22 5.326 2.22 1.908 0 3.817-.724 5.28-2.174 2.941-2.916 2.962-7.664.046-10.606l-46.09-46.495c-2.915-2.941-7.664-2.963-10.606-.046-2.941 2.916-2.962 7.664-.046 10.606z"/><path d="m343.728 74.052c.994.445 2.034.656 3.059.656 2.866 0 5.604-1.653 6.85-4.439l11.635-26.005c1.692-3.78-.002-8.217-3.783-9.908-3.775-1.691-8.217.001-9.908 3.783l-11.635 26.005c-1.694 3.78 0 8.217 3.782 9.908z"/><path d="m455.937 175.48c1.273 2.725 3.977 4.325 6.799 4.325 1.063 0 2.145-.228 3.172-.708l19.653-9.188c3.752-1.754 5.372-6.218 3.617-9.971-1.754-3.752-6.218-5.374-9.971-3.617l-19.653 9.188c-3.752 1.754-5.372 6.218-3.617 9.971z"/><path d="m416.778 114.621c1.93 0 3.86-.741 5.326-2.22l46.09-46.495c2.916-2.942 2.896-7.69-.046-10.606-2.941-2.915-7.69-2.895-10.606.046l-46.09 46.495c-2.916 2.942-2.896 7.69.046 10.606 1.463 1.45 3.371 2.174 5.28 2.174z"/></g></g></svg>