<svg id="Capa_1" enable-background="new 0 0 512.083 512.083" height="512" viewBox="0 0 512.083 512.083" width="512" xmlns="http://www.w3.org/2000/svg"><g><g><g><g id="XMLID_161_"><g><path d="m320.694 22.314c83.943 0 151.994 68.529 151.96 153.065-.034 84.715-69.276 152.94-153.414 152.94h-197.933c-58.073 0-106.012-46.954-106.206-105.426-.195-58.599 46.921-106.158 105.066-106.158 15.895 0 30.969 3.556 44.475 9.921 5.43 2.559 11.829-.025 13.958-5.668 21.763-57.684 77.168-98.674 142.094-98.674z" fill="#f9f3f1"/></g></g></g><path d="m63.001 255.465c-.195-58.599 46.921-106.158 105.066-106.158 15.895 0 30.969 3.556 44.475 9.921 5.43 2.559 11.829-.025 13.958-5.668 21.762-57.684 77.167-98.674 142.093-98.674 21.108 0 41.209 4.337 59.478 12.168-27.494-27.644-65.453-44.739-107.377-44.739-64.927 0-120.332 40.99-142.093 98.674-2.129 5.643-8.528 8.227-13.958 5.668-13.506-6.365-28.58-9.921-44.475-9.921-58.145 0-105.26 47.56-105.066 106.158.155 46.688 30.752 86.031 72.642 99.993-15.343-18.243-24.658-41.718-24.743-67.422z" fill="#f3eae6"/><path d="m454.697 222.979c-3.082-37.824-34.734-67.566-73.352-67.566-40.66 0-73.62 32.961-73.62 73.621 0 7.576 1.147 14.884 3.273 21.763h-24.908c-22.677 0-41.061 18.384-41.061 41.061s18.384 41.061 41.061 41.061h163.397c30.428 0 55.096-24.667 55.096-55.096 0-28.671-21.902-52.218-49.886-54.844z" fill="#f3eae6"/><path d="m164.234 311.915-113.95 54.337c-2.181 1.04-2.444 4.039-.478 5.443l24.693 17.638c1.615 1.154 1.786 3.491.354 4.867l-44.975 43.223c-2.369 2.277-.138 6.211 3.032 5.346l119.331-32.545c2.565-.7 3.182-4.055 1.034-5.622l-27.535-20.078c-1.382-1.008-1.716-2.93-.754-4.345l43.237-63.62c1.817-2.675-1.069-6.037-3.989-4.644z" fill="#fee45a"/></g><g><path d="m66.79 329.461c1.03.483 2.114.713 3.183.713 2.817 0 5.517-1.595 6.794-4.314 1.761-3.75.148-8.216-3.602-9.977-35.334-16.591-58.165-52.518-58.165-91.526 0-31.78 14.516-61.082 39.824-80.393 3.293-2.512 3.926-7.219 1.413-10.512-2.513-3.292-7.216-3.927-10.513-1.413-29.058 22.172-45.724 55.82-45.724 92.318 0 44.796 26.217 86.052 66.79 105.104z"/><path d="m417.767 60.07c34.945 28.552 54.988 70.773 54.988 115.837 0 5.948-.362 11.987-1.076 17.95-.493 4.113 2.441 7.846 6.554 8.339.304.036.604.054.902.054 3.743 0 6.98-2.799 7.437-6.608.785-6.553 1.184-13.192 1.184-19.734 0-49.586-22.051-96.041-60.498-127.454-3.205-2.62-7.933-2.146-10.553 1.063-2.622 3.208-2.146 7.932 1.062 10.553z"/><path d="m81.162 129.483c11.158-4.106 22.9-6.188 34.9-6.188 18.61 0 36.799 5.101 52.598 14.751.018.011.07.039.078.044 19.006 11.632 33.839 29.462 41.765 50.206 1.142 2.989 3.988 4.825 7.008 4.825.89 0 1.794-.16 2.675-.496 3.869-1.479 5.808-5.813 4.329-9.683-8.412-22.017-23.605-41.16-43.082-54.478 9.469-28.238 27.574-53.526 51.426-71.659 26.167-19.894 57.422-30.409 90.386-30.409 24.326 0 47.532 5.664 68.975 16.834 3.671 1.913 8.202.488 10.116-3.186 1.914-3.673.487-8.203-3.187-10.117-23.271-12.124-49.518-18.532-75.904-18.532-36.271 0-70.664 11.573-99.464 33.468-25.378 19.294-44.848 45.957-55.525 75.807-16.118-8.121-33.98-12.377-52.192-12.377-13.773 0-27.258 2.393-40.08 7.111-3.888 1.431-5.879 5.741-4.448 9.629 1.428 3.889 5.74 5.884 9.626 4.45z"/><path d="m495.665 235.569c-9.127-9.966-21.102-16.647-34.206-19.188-2.811-17.936-11.559-34.4-25.015-46.871-15.029-13.927-34.598-21.598-55.101-21.598-19.926 0-39.091 7.306-53.965 20.571-3.091 2.757-3.362 7.498-.605 10.589 2.759 3.091 7.496 3.362 10.59.605 12.122-10.812 27.741-16.766 43.98-16.766 16.71 0 32.657 6.25 44.905 17.6 12.181 11.288 19.628 26.585 20.972 43.075.296 3.627 3.152 6.519 6.774 6.858 24.564 2.305 43.088 22.672 43.088 47.376 0 26.244-21.352 47.596-47.596 47.596h-163.396c-18.505 0-33.561-15.056-33.561-33.561s15.056-33.561 33.561-33.561h24.906c2.382 0 4.622-1.131 6.035-3.048 1.414-1.917 1.834-4.391 1.131-6.666-1.95-6.311-2.938-12.888-2.938-19.549 0-8.998 1.778-17.725 5.286-25.94 1.627-3.81-.143-8.216-3.952-9.843-3.813-1.627-8.217.143-9.843 3.952-4.308 10.088-6.491 20.797-6.491 31.831 0 4.803.42 9.572 1.253 14.263h-15.387c-26.776 0-48.561 21.784-48.561 48.561 0 13.011 5.153 24.834 13.514 33.561h-59.691c-4.143 0-7.5 3.358-7.5 7.5s3.357 7.5 7.5 7.5h258.136c34.516 0 62.596-28.08 62.596-62.596-.001-15.684-5.832-30.69-16.419-42.251z"/><path d="m334.975 381.87c-3.683-1.896-8.205-.449-10.102 3.233l-53.894 104.647c-1.896 3.683-.448 8.205 3.234 10.102 1.099.566 2.271.834 3.428.834 2.719 0 5.343-1.484 6.674-4.067l53.894-104.647c1.896-3.683.448-8.206-3.234-10.102z"/><path d="m374.603 423.548c-3.682-1.896-8.204-.448-10.102 3.234l-32.429 62.969c-1.896 3.683-.448 8.206 3.234 10.102 1.099.565 2.271.833 3.428.833 2.719 0 5.343-1.484 6.674-4.067l32.429-62.969c1.896-3.683.448-8.206-3.234-10.102z"/><path d="m396.067 381.87c-3.682-1.896-8.204-.449-10.102 3.233l-8.647 16.791c-1.896 3.683-.448 8.205 3.234 10.102 1.099.566 2.271.834 3.428.834 2.719 0 5.343-1.484 6.674-4.067l8.647-16.791c1.897-3.683.449-8.206-3.234-10.102z"/><path d="m446.529 402.511c-3.683-1.896-8.204-.449-10.102 3.233l-27.049 52.521c-1.896 3.683-.448 8.205 3.234 10.102 1.099.566 2.271.834 3.428.834 2.719 0 5.343-1.484 6.674-4.067l27.049-52.521c1.897-3.683.449-8.205-3.234-10.102z"/><path d="m161.006 305.145-113.949 54.337c-3.446 1.643-5.703 4.894-6.038 8.697-.334 3.804 1.321 7.399 4.428 9.619l20.451 14.608-41.217 39.61c-3.52 3.383-4.296 8.712-1.888 12.958 1.931 3.404 5.508 5.409 9.277 5.409.933 0 1.878-.123 2.813-.377l119.331-32.545c3.993-1.089 6.938-4.295 7.688-8.366.749-4.07-.864-8.114-4.208-10.552l-24.152-17.611 40.884-60.157c2.745-4.04 2.452-9.243-.729-12.949-3.183-3.706-8.285-4.782-12.691-2.681zm-42.226 70.821c-3.252 4.787-2.136 11.208 2.54 14.619l20.26 14.773-94.264 25.708 32.735-31.459c2.295-2.207 3.479-5.293 3.247-8.469s-1.85-6.058-4.44-7.908l-18.717-13.369 92.893-44.296z"/></g></g></svg>