<svg id="Capa_1" enable-background="new 0 0 511.938 511.938" height="512" viewBox="0 0 511.938 511.938" width="512" xmlns="http://www.w3.org/2000/svg"><g><g><g id="XMLID_153_"><g><path d="m297.279 113.378c78.918 0 142.865 64.102 142.595 143.083-.269 78.812-65.331 142.098-144.143 142.098h-185.369c-54.361 0-99.422-43.478-99.831-97.838-.412-54.793 43.884-99.343 98.593-99.343 12.485 0 24.433 2.318 35.428 6.551 8.638 3.326 18.352-.655 22.067-9.133 22.037-50.287 72.237-85.418 130.66-85.418z" fill="#f9f3f1"/></g></g><path d="m48.402 343.916c-.412-54.793 43.884-99.343 98.593-99.343 12.485 0 24.433 2.318 35.428 6.551 8.638 3.326 18.352-.655 22.067-9.133 22.037-50.289 72.238-85.42 130.661-85.42 32.363 0 62.203 10.786 86.134 28.95-24.532-43.088-70.874-72.145-124.005-72.145-58.423 0-108.623 35.13-130.661 85.42-3.715 8.478-13.429 12.458-22.067 9.133-10.995-4.233-22.943-6.551-35.428-6.551-54.709 0-99.004 44.55-98.593 99.343.262 34.838 18.864 65.207 46.5 82.525-5.441-12.013-8.523-25.308-8.629-39.33z" fill="#f3eae6"/></g><g><path d="m83.932 211.397c7.452-1.919 15.174-2.892 22.948-2.892 16.898 0 33.412 4.631 47.758 13.394.016.01.033.016.049.025.008.005.014.01.021.015 17.259 10.563 30.727 26.752 37.923 45.586 1.142 2.989 3.988 4.825 7.007 4.825.891 0 1.795-.16 2.676-.496 3.869-1.478 5.808-5.813 4.329-9.683-7.679-20.098-21.504-37.589-39.225-49.828 1.381-4.091 2.94-8.096 4.683-12h124.214c4.143 0 7.5-3.358 7.5-7.5s-3.357-7.5-7.5-7.5h-116.356c14.517-23.961 36.232-43.055 62.638-54.417 3.806-1.637 5.563-6.048 3.926-9.854-1.638-3.805-6.048-5.564-9.854-3.925-38.666 16.636-68.29 48.192-82.438 87.413-14.653-7.255-30.849-11.057-47.353-11.057-9.035 0-18.015 1.132-26.688 3.365-4.011 1.033-6.426 5.122-5.393 9.133 1.034 4.013 5.119 6.429 9.135 5.396z"/><path d="m135.395 392.03h-28.515c-26.174 0-49.822-11.017-66.554-28.655h183.42c4.143 0 7.5-3.358 7.5-7.5s-3.357-7.5-7.5-7.5h-194.974c-8.652-13.997-13.654-30.478-13.654-48.107 0-31.165 15.619-59.936 41.781-76.963 3.472-2.26 4.454-6.906 2.195-10.377-2.26-3.472-6.906-4.454-10.377-2.195-30.432 19.806-48.6 53.277-48.6 89.535 0 17.296 4.139 33.642 11.471 48.107h-4.088c-4.143 0-7.5 3.358-7.5 7.5s3.357 7.5 7.5 7.5h13.323c19.45 26.453 50.78 43.655 86.057 43.655h28.515c4.143 0 7.5-3.358 7.5-7.5s-3.358-7.5-7.5-7.5z"/><path d="m437.261 392.03h-75.351c25.971-12.571 47.814-32.368 62.919-56.757h58.573c4.143 0 7.5-3.358 7.5-7.5s-3.357-7.5-7.5-7.5h-50.419c8.213-17.386 13.21-36.577 14.204-56.804h17.893c4.143 0 7.5-3.358 7.5-7.5s-3.357-7.5-7.5-7.5h-17.893c-.891-18.126-4.989-35.422-11.741-51.331h47.955c4.143 0 7.5-3.358 7.5-7.5s-3.357-7.5-7.5-7.5h-55.341c-15.135-26.902-38.264-48.732-66.151-62.231h106.636c4.143 0 7.5-3.358 7.5-7.5s-3.357-7.5-7.5-7.5h-172.231s-18.014.803-26.842 2.387c-4.077.731-6.789 4.63-6.058 8.707.73 4.077 4.627 6.788 8.706 6.058 7.957-1.428 16.096-2.151 24.192-2.151 75.024 0 136.062 61.037 136.062 136.061s-61.036 136.061-136.061 136.061h-128.956c-4.143 0-7.5 3.358-7.5 7.5s3.357 7.5 7.5 7.5h269.903c4.143 0 7.5-3.358 7.5-7.5s-3.357-7.5-7.499-7.5z"/><path d="m504.438 392.03h-28.499c-4.143 0-7.5 3.358-7.5 7.5s3.357 7.5 7.5 7.5h28.499c4.143 0 7.5-3.358 7.5-7.5s-3.358-7.5-7.5-7.5z"/><path d="m496.974 119.907h7.464c4.143 0 7.5-3.358 7.5-7.5s-3.357-7.5-7.5-7.5h-7.464c-4.143 0-7.5 3.358-7.5 7.5s3.357 7.5 7.5 7.5z"/><path d="m256.271 348.375c-4.143 0-7.5 3.358-7.5 7.5s3.357 7.5 7.5 7.5h25.31c4.143 0 7.5-3.358 7.5-7.5s-3.357-7.5-7.5-7.5z"/></g></g></svg>