<svg id="Capa_1" enable-background="new 0 0 512.055 512.055" height="512" viewBox="0 0 512.055 512.055" width="512" xmlns="http://www.w3.org/2000/svg"><g><path d="m498.831 198.757-476.73-154.77v332.42l22.86-15.05 453.87-147.85c7.14-2.33 7.14-12.42 0-14.75z" fill="#f7f2f0"/><path d="m498.831 198.757-40.646-13.24-328.489 107.007c-31.941 10.405-64.732-13.401-64.732-46.993v-188.098l-20.003-6.516-18.543-5.622-4.317-1.309v332.42l22.86-15.05 453.87-147.85c7.14-2.329 7.14-12.419 0-14.749z" fill="#f1e9e6"/><path d="m129.612 333.782 118.298-38.536v-177.95l-118.298-38.405z" fill="#f37c7c"/><path d="m247.91 254.015-118.214 38.509c-.028.009-.056.016-.084.025v41.233l10.523-3.428 107.775-35.108z" fill="#ee6161"/><path d="m341.779 264.668 81.711-26.618v-63.752l-81.711-26.527z" fill="#f37c7c"/><path d="m341.779 264.668 81.711-26.618v-41.23l-81.711 26.617z" fill="#ee6161"/><path d="m44.964 498.617v-472.571c0-10.243-8.303-18.546-18.546-18.546-10.243 0-18.546 8.303-18.546 18.546v472.571c0 3.279 2.658 5.938 5.938 5.938h25.217c3.279 0 5.937-2.659 5.937-5.938z" fill="#c7bec6"/><g><g><path d="m7.872 405.631c-4.142 0-7.5 3.357-7.5 7.5v91.424c0 4.143 3.358 7.5 7.5 7.5s7.5-3.357 7.5-7.5v-91.424c0-4.143-3.358-7.5-7.5-7.5z"/><path d="m501.153 191.629-98.312-32.025c-3.936-1.286-8.171.87-9.454 4.808s.87 8.172 4.808 9.454l16.878 5.498v53.54l-65.794 21.432v-96.404l16.954 5.522c.771.252 1.554.371 2.324.371 3.159 0 6.098-2.013 7.13-5.179 1.283-3.938-.87-8.172-4.809-9.454l-262.68-85.567c-3.936-1.285-8.171.87-9.454 4.808s.87 8.172 4.809 9.454l18.56 6.046v244.403l-69.648 22.688v-289.779l19.126 6.23c.771.252 1.554.371 2.324.371 3.16 0 6.098-2.013 7.13-5.179 1.283-3.938-.87-8.172-4.809-9.454l-23.772-7.743v-19.424c0-14.361-11.684-26.046-26.046-26.046s-26.046 11.685-26.046 26.046v355.122c0 4.143 3.358 7.5 7.5 7.5s7.5-3.357 7.5-7.5v-355.122c0-6.091 4.955-11.046 11.046-11.046s11.046 4.955 11.046 11.046v478.509c0 4.143 3.358 7.5 7.5 7.5s7.5-3.357 7.5-7.5v-137.757l448.689-146.16c6.396-2.084 10.53-7.777 10.53-14.504 0-6.728-4.133-12.421-10.53-14.505zm-166.874 67.593-78.869 25.692v-157.56l78.869 25.691zm-197.167-170.403 103.298 33.649v167.332l-103.298 33.649zm359.552 117.488c-.011.009-.061.038-.157.069l-66.434 21.641v-43.767l66.434 21.641c.095.03.147.063.139.049.05.081.05.306.018.367z"/><path d="m205.959 73.178h190.268c15.019 0 27.237-12.219 27.237-27.237s-12.219-27.237-27.237-27.237h-18.416c-4.142 0-7.5 3.357-7.5 7.5s3.358 7.5 7.5 7.5h18.416c6.748 0 12.237 5.489 12.237 12.237s-5.49 12.237-12.237 12.237h-190.268c-4.142 0-7.5 3.357-7.5 7.5s3.358 7.5 7.5 7.5z"/><path d="m369.344 111.979c0 4.143 3.358 7.5 7.5 7.5h68.137c4.142 0 7.5-3.357 7.5-7.5s-3.358-7.5-7.5-7.5h-68.137c-4.143 0-7.5 3.357-7.5 7.5z"/><path d="m475.332 119.479h7.433c4.142 0 7.5-3.357 7.5-7.5s-3.358-7.5-7.5-7.5h-7.433c-4.142 0-7.5 3.357-7.5 7.5s3.358 7.5 7.5 7.5z"/><path d="m396.528 329.984h-12.692c-4.142 0-7.5 3.357-7.5 7.5s3.358 7.5 7.5 7.5h12.692c6.596 0 11.962 5.366 11.962 11.962s-5.366 11.961-11.962 11.961h-221.694c-4.142 0-7.5 3.357-7.5 7.5s3.358 7.5 7.5 7.5h221.693c14.867 0 26.962-12.095 26.962-26.961.001-14.867-12.095-26.962-26.961-26.962z"/><path d="m295.681 414.601h-175.847c-4.142 0-7.5 3.357-7.5 7.5s3.358 7.5 7.5 7.5h175.848c6.596 0 11.962 5.365 11.962 11.961s-5.366 11.962-11.962 11.962h-12.692c-4.142 0-7.5 3.357-7.5 7.5s3.358 7.5 7.5 7.5h12.692c14.867 0 26.962-12.095 26.962-26.962-.001-14.867-12.096-26.961-26.963-26.961z"/></g></g></g></svg>