<svg id="Capa_1" enable-background="new 0 0 508.434 508.434" height="512" viewBox="0 0 508.434 508.434" width="512" xmlns="http://www.w3.org/2000/svg"><g><g><path d="m197.405 144.121c-.935-38.379-28.106-71.614-65.976-79.857-.892-.194-1.71.531-1.662 1.443.232 4.454.091 8.987-.465 13.566-5.21 42.851-44.171 73.366-87.022 68.156-3.771-.458-7.441-1.192-11.003-2.156-.881-.239-1.762.409-1.76 1.322.058 21.473 8.356 41.436 22.172 56.479l54.741 39.471 100.307-55.352z" fill="#fee97d"/><g><g id="XMLID_218_"><g><path d="m315.113 87.266c85.143 0 154.167 69.244 154.133 154.661-.034 85.598-70.267 154.534-155.608 154.534h-200.763c-58.903 0-107.528-47.444-107.725-106.525-.197-59.21 47.592-107.265 106.568-107.265 16.122 0 31.412 3.594 45.111 10.024 5.508 2.586 11.999-.025 14.158-5.727 22.074-58.285 78.271-99.702 144.126-99.702z" fill="#f9f3f1"/></g></g></g><path d="m53.735 322.848c-.197-59.21 47.592-107.265 106.568-107.265 16.122 0 31.412 3.594 45.111 10.024 5.508 2.586 11.999-.025 14.158-5.727 22.073-58.286 78.27-99.703 144.125-99.703 21.41 0 41.799 4.382 60.328 12.295-27.887-27.933-66.389-45.206-108.913-45.206-65.855 0-122.052 41.417-144.125 99.703-2.159 5.702-8.65 8.313-14.158 5.727-13.699-6.431-28.989-10.025-45.111-10.025-58.976 0-106.766 48.055-106.568 107.265.157 47.175 31.192 86.928 73.681 101.035-15.562-18.432-25.009-42.152-25.096-68.123z" fill="#f3eae6"/></g><g><path d="m363.604 104.817c22.157 7.866 42.33 21.214 58.337 38.6 1.479 1.606 3.496 2.42 5.52 2.42 1.815 0 3.637-.655 5.078-1.982 3.047-2.806 3.243-7.55.438-10.598-17.652-19.174-39.906-33.896-64.354-42.574-3.9-1.388-8.19.655-9.576 4.559s.654 8.189 4.557 9.575z"/><path d="m113.212 190.829c18.085 0 35.76 4.957 51.114 14.335.018.011.069.039.076.044 17.058 10.439 30.377 25.584 38.519 43.795 1.246 2.788 3.983 4.441 6.851 4.441 1.023 0 2.063-.211 3.057-.655 3.782-1.69 5.477-6.126 3.786-9.907-8.59-19.219-22.194-35.457-39.512-47.296 9.22-27.401 26.805-51.938 49.959-69.54 25.445-19.346 55.839-29.571 87.894-29.571 6.359 0 12.781.42 19.089 1.247 4.101.529 7.873-2.354 8.412-6.461.538-4.107-2.354-7.873-6.461-8.412-6.952-.912-14.031-1.374-21.04-1.374-35.361 0-68.894 11.283-96.972 32.63-5.313 4.039-10.341 8.427-15.095 13.089-3.054-14.243-9.488-27.726-18.831-39.07-12.995-15.777-31.119-26.854-51.032-31.187-2.72-.594-5.496.103-7.618 1.904-2.103 1.784-3.272 4.495-3.131 7.257.214 4.092.072 8.221-.42 12.271-2.273 18.7-11.687 35.407-26.504 47.043-3.258 2.558-3.825 7.272-1.267 10.53 2.558 3.259 7.273 3.825 10.53 1.267 17.964-14.105 29.374-34.358 32.131-57.029.265-2.176.445-4.37.542-6.57 29.739 9.659 50.662 36.496 52.502 68.064-11.075 13.847-19.882 29.473-25.867 46.131-15.67-7.856-33.023-11.974-50.712-11.974-22.057 0-42.657 6.347-60.081 17.302-8.785-11.292-14.221-24.704-15.701-38.833 1.315.224 2.632.416 3.943.576 10.705 1.301 21.422.587 31.853-2.123 4.009-1.041 6.415-5.136 5.373-9.145-1.04-4.009-5.137-6.411-9.145-5.373-8.604 2.234-17.443 2.824-26.27 1.75-3.306-.402-6.653-1.059-9.951-1.952-2.663-.72-5.564-.147-7.753 1.533-2.211 1.698-3.474 4.269-3.465 7.05.054 20.095 6.762 39.437 18.975 55.311-25.026 20.781-40.99 52.118-40.99 87.114 0 24.833 7.896 48.41 22.833 68.182 1.475 1.951 3.719 2.979 5.99 2.979 1.574 0 3.162-.493 4.516-1.516 3.305-2.497 3.96-7.2 1.463-10.506-12.954-17.146-19.802-37.596-19.802-59.139 0-54.154 44.058-98.212 98.212-98.212z"/><path d="m167.049 402.252c4.143 0 7.5-3.357 7.5-7.5s-3.357-7.5-7.5-7.5h-53.837c-20.649 0-40.409-6.338-57.143-18.329-3.367-2.412-8.052-1.639-10.465 1.729-2.412 3.366-1.639 8.052 1.729 10.465 19.296 13.827 42.076 21.136 65.879 21.136h53.837z"/><path d="m457.093 387.252h-247.325c-4.143 0-7.5 3.357-7.5 7.5s3.357 7.5 7.5 7.5h247.325c9.499 0 17.227 7.728 17.227 17.227s-7.728 17.227-17.227 17.227h-37.863c-4.143 0-7.5 3.357-7.5 7.5s3.357 7.5 7.5 7.5h37.863c17.77 0 32.227-14.457 32.227-32.227s-14.458-32.227-32.227-32.227z"/><path d="m370.12 436.705h-13.185c-4.143 0-7.5 3.357-7.5 7.5s3.357 7.5 7.5 7.5h13.185c4.143 0 7.5-3.357 7.5-7.5s-3.357-7.5-7.5-7.5z"/><path d="m288.271 436.705h-174.811c-4.143 0-7.5 3.357-7.5 7.5s3.357 7.5 7.5 7.5h174.812c4.143 0 7.5-3.357 7.5-7.5s-3.358-7.5-7.501-7.5z"/><path d="m500.934 332.457h-233.15c-4.143 0-7.5 3.357-7.5 7.5s3.357 7.5 7.5 7.5h233.15c4.143 0 7.5-3.357 7.5-7.5s-3.358-7.5-7.5-7.5z"/><path d="m419.959 241.863c0 4.143 3.357 7.5 7.5 7.5h54.414c6.375 0 11.561 5.187 11.561 11.561 0 6.375-5.186 11.562-11.561 11.562h-157.487c-4.143 0-7.5 3.357-7.5 7.5s3.357 7.5 7.5 7.5h157.487c14.646 0 26.561-11.915 26.561-26.562 0-14.646-11.915-26.561-26.561-26.561h-54.414c-4.143 0-7.5 3.358-7.5 7.5z"/><path d="m309.103 187.192h-17.483c-4.143 0-7.5 3.357-7.5 7.5s3.357 7.5 7.5 7.5h17.483c4.143 0 7.5-3.357 7.5-7.5s-3.358-7.5-7.5-7.5z"/><path d="m338.293 194.692c0 4.143 3.357 7.5 7.5 7.5h127.864c4.143 0 7.5-3.357 7.5-7.5s-3.357-7.5-7.5-7.5h-127.864c-4.143 0-7.5 3.357-7.5 7.5z"/></g></g></svg>